<?xml version="1.0" encoding="UTF-8" standalone="no"?>
<!DOCTYPE svg PUBLIC "-//W3C//DTD SVG 1.1//EN" "http://www.w3.org/Graphics/SVG/1.1/DTD/svg11.dtd">
<svg width = "32" height = "32" xmlns="http://www.w3.org/2000/svg" version="1.1" viewBox="0 0 1024 1024">
<path fill="#ffffff" d="
  M 222.75 678.76
  L 222.75 345.07
  A 0.32 0.32 0.0 0 1 222.91 344.80
  L 511.78 178.01
  A 0.32 0.32 0.0 0 1 512.10 178.01
  L 800.84 344.72
  A 0.32 0.32 0.0 0 1 801.00 344.99
  L 801.00 678.67
  A 0.32 0.32 0.0 0 1 800.84 678.94
  L 511.95 845.73
  A 0.32 0.32 0.0 0 1 511.63 845.73
  L 222.91 679.03
  A 0.32 0.32 0.0 0 1 222.75 678.76
  Z
  M 253.50 660.76
  A 0.47 0.47 0.0 0 0 253.73 661.17
  L 511.70 810.11
  A 0.47 0.47 0.0 0 0 512.18 810.11
  L 770.02 661.25
  A 0.47 0.47 0.0 0 0 770.25 660.84
  L 770.25 362.99
  A 0.47 0.47 0.0 0 0 770.02 362.58
  L 512.03 213.64
  A 0.47 0.47 0.0 0 0 511.57 213.64
  L 253.74 362.47
  A 0.47 0.47 0.0 0 0 253.50 362.88
  L 253.50 660.76
  Z"
/>
<path fill="#ffffff" d="
  M 531.00 531.39
  L 531.00 630.26
  Q 531.00 630.78 530.49 630.78
  L 493.61 630.74
  Q 492.99 630.74 492.99 630.12
  L 493.00 531.81
  Q 493.00 531.31 492.52 531.19
  Q 490.52 530.73 488.25 530.73
  Q 454.19 530.84 393.43 530.71
  Q 392.99 530.71 392.99 530.26
  L 393.00 493.50
  Q 393.00 493.00 393.50 493.00
  L 492.47 493.00
  Q 493.00 493.00 493.00 492.47
  L 492.99 393.49
  Q 492.99 392.99 493.50 392.99
  L 530.50 393.01
  A 0.50 0.49 0.0 0 1 531.00 393.50
  L 531.00 492.50
  A 0.50 0.50 0.0 0 0 531.50 493.00
  L 630.50 493.00
  A 0.50 0.50 0.0 0 1 631.00 493.50
  L 631.00 530.25
  Q 631.00 530.74 630.50 530.74
  L 531.61 530.78
  Q 531.00 530.78 531.00 531.39
  Z"
/>
</svg>
