<?xml version="1.0" encoding="UTF-8" standalone="no"?>
<!DOCTYPE svg PUBLIC "-//W3C//DTD SVG 1.1//EN" "http://www.w3.org/Graphics/SVG/1.1/DTD/svg11.dtd">
<svg width = "32" height = "32" xmlns="http://www.w3.org/2000/svg" version="1.1" viewBox="0 0 1024 1024">
<path fill="#ffffff" d="
  M 810.42 511.88
  A 298.54 298.54 0.0 0 1 511.88 810.42
  A 298.54 298.54 0.0 0 1 213.34 511.88
  A 298.54 298.54 0.0 0 1 511.88 213.34
  A 298.54 298.54 0.0 0 1 810.42 511.88
  Z
  M 318.82 701.77
  C 321.57 704.47 324.65 708.32 328.03 711.22
  C 337.50 719.36 347.43 727.65 357.31 734.47
  C 385.90 754.22 419.46 769.54 453.68 776.44
  Q 459.94 777.70 466.18 779.03
  C 473.64 780.62 481.18 781.02 488.77 781.81
  C 502.50 783.24 517.68 783.57 531.27 782.20
  C 548.30 780.49 564.70 778.46 581.08 773.99
  C 681.08 746.72 755.79 668.38 777.26 566.75
  Q 780.52 551.32 781.66 536.58
  C 781.90 533.56 782.72 528.44 782.72 524.00
  C 782.72 511.20 783.07 501.40 781.94 489.97
  Q 781.26 482.99 780.53 476.02
  C 779.85 469.47 778.21 462.82 777.00 456.20
  C 774.86 444.50 770.93 431.53 767.74 422.49
  Q 746.89 363.41 702.50 319.43
  C 700.10 317.06 698.06 314.71 694.99 312.02
  C 667.26 287.68 636.54 268.16 603.31 256.72
  Q 598.87 255.19 584.24 250.67
  C 577.30 248.53 570.00 247.40 562.79 245.83
  C 531.87 239.13 498.21 239.44 468.76 244.25
  C 371.73 260.08 291.37 326.43 257.16 419.18
  C 253.89 428.04 250.10 440.32 247.79 451.17
  C 245.99 459.60 244.08 467.91 243.11 476.47
  C 239.39 509.44 240.23 542.70 248.29 575.23
  C 259.94 622.30 284.11 667.81 318.82 701.77
  Z"
/>
<path fill="#ffffff" d="
  M 258.74 471.50
  C 277.52 362.23 359.45 278.80 468.42 259.30
  Q 474.68 258.18 483.67 257.28
  C 490.50 256.59 497.25 255.74 504.13 255.74
  C 521.26 255.74 539.07 255.85 555.91 259.42
  Q 561.30 260.56 566.71 261.66
  C 643.99 277.45 713.63 334.02 745.23 405.79
  C 752.89 423.18 759.34 441.37 762.77 460.05
  C 764.00 466.75 765.58 473.31 766.18 480.06
  C 767.71 497.07 769.03 513.74 767.42 530.68
  C 765.83 547.45 763.53 564.49 758.69 580.78
  Q 754.74 594.05 752.31 600.56
  C 721.94 681.64 654.42 741.29 570.15 761.37
  C 561.79 763.36 550.29 765.62 539.76 766.49
  C 533.77 766.99 527.67 767.89 521.81 767.95
  C 510.93 768.06 500.51 768.27 489.43 767.09
  C 482.21 766.31 475.08 765.86 467.96 764.34
  C 459.70 762.58 451.32 761.22 443.32 758.79
  C 434.32 756.06 425.49 753.47 416.81 749.86
  C 396.88 741.57 378.51 731.81 360.39 718.63
  C 318.24 687.95 286.95 644.69 269.74 596.04
  Q 268.09 591.38 264.11 577.56
  C 261.82 569.61 260.54 561.38 258.99 553.19
  Q 257.84 547.07 257.22 539.73
  C 256.72 533.68 255.82 527.56 255.78 521.64
  Q 255.72 514.10 255.74 506.56
  C 255.78 494.95 257.07 481.25 258.74 471.50
  Z"
/>
</svg>
