<?xml version="1.0" encoding="UTF-8" standalone="no"?>
<!DOCTYPE svg PUBLIC "-//W3C//DTD SVG 1.1//EN" "http://www.w3.org/Graphics/SVG/1.1/DTD/svg11.dtd">
<svg width = "32" height = "32" xmlns="http://www.w3.org/2000/svg" version="1.1" viewBox="0 0 1024 1024">
<path fill="#ffffff" d="
  M 292.07 727.19
  C 287.47 723.05 286.22 717.01 284.34 711.30
  Q 284.18 710.82 284.35 710.35
  C 288.23 699.48 293.35 689.64 298.35 679.29
  Q 405.45 457.70 512.74 236.21
  Q 512.99 235.70 513.24 236.21
  Q 624.01 464.89 734.57 693.65
  C 737.16 698.99 739.00 704.56 740.97 710.14
  Q 741.14 710.62 741.01 711.11
  C 739.73 716.16 738.01 722.28 734.12 725.98
  C 730.08 729.82 726.29 734.34 721.46 737.12
  Q 709.38 744.07 705.46 745.74
  C 673.90 759.21 641.46 765.36 608.15 770.26
  C 595.28 772.15 581.73 773.07 568.45 774.29
  Q 558.70 775.19 548.50 775.46
  C 527.14 776.03 509.49 776.92 484.82 775.61
  C 479.64 775.34 473.53 775.61 468.07 775.18
  C 437.13 772.77 420.28 770.98 391.95 766.38
  C 381.13 764.62 370.29 761.76 359.47 759.26
  Q 351.86 757.50 344.73 755.03
  C 335.57 751.86 326.35 749.14 317.76 744.63
  Q 311.35 741.26 304.98 737.85
  C 299.94 735.16 296.30 730.98 292.07 727.19
  Z
  M 515.23 627.26
  L 515.29 644.71
  A 0.76 0.76 0.0 0 0 516.04 645.47
  Q 523.14 645.54 530.33 645.84
  C 542.08 646.32 554.46 646.30 566.57 647.39
  C 593.53 649.81 620.85 652.18 647.42 658.28
  C 658.95 660.93 670.48 663.33 681.63 667.15
  Q 689.70 669.92 697.74 672.79
  C 704.52 675.21 710.43 678.57 716.62 682.04
  A 0.24 0.24 0.0 0 0 716.96 681.73
  L 513.21 259.03
  Q 512.92 258.43 512.63 259.03
  Q 412.11 467.45 311.68 675.93
  Q 310.23 678.95 309.33 681.25
  Q 308.97 682.15 309.81 681.67
  C 324.45 673.22 343.88 666.22 356.57 663.33
  C 367.91 660.74 379.35 657.65 390.59 655.77
  Q 415.29 651.64 422.25 650.77
  C 445.95 647.81 474.75 646.09 509.97 645.53
  Q 510.52 645.52 510.52 644.97
  L 510.46 627.33
  Q 510.46 626.68 511.10 626.70
  L 514.76 626.77
  Q 515.23 626.78 515.23 627.26
  Z
  M 510.41 657.45
  L 510.41 654.20
  A 0.85 0.85 0.0 0 0 509.54 653.35
  Q 492.33 653.68 475.18 654.31
  C 461.15 654.82 446.21 656.42 431.69 657.40
  C 428.80 657.60 425.34 658.53 421.99 658.50
  Q 421.50 658.50 421.06 658.72
  Q 420.21 659.16 419.26 659.26
  Q 382.71 663.28 347.45 673.73
  Q 329.87 678.94 313.94 687.90
  C 309.21 690.56 305.47 694.37 301.30 697.96
  C 298.23 700.60 296.83 706.54 295.47 710.33
  Q 295.30 710.82 295.47 711.31
  Q 297.05 715.73 298.73 720.11
  C 300.19 723.94 306.07 727.94 309.21 730.63
  C 313.96 734.69 319.98 736.96 325.53 739.76
  Q 330.55 742.30 335.37 744.00
  C 354.44 750.72 367.45 753.65 384.17 757.09
  C 386.49 757.57 390.20 758.67 393.23 759.05
  Q 399.04 759.77 399.13 759.79
  Q 424.08 763.83 457.17 766.37
  Q 475.35 767.77 486.33 767.76
  Q 487.97 767.76 490.65 768.05
  C 495.55 768.58 500.61 768.12 505.55 768.34
  C 518.32 768.92 530.29 768.11 543.97 767.74
  Q 551.69 767.53 563.00 766.76
  Q 602.36 764.06 634.73 758.42
  C 660.59 753.91 686.17 747.50 708.72 735.67
  C 714.56 732.61 719.00 728.51 723.86 724.14
  C 727.22 721.11 728.62 715.50 730.01 711.29
  Q 730.17 710.80 729.98 710.33
  C 728.57 706.80 727.24 700.81 724.42 698.32
  C 719.69 694.14 715.24 689.55 709.46 686.77
  C 702.35 683.35 695.64 679.62 688.14 677.20
  C 678.23 674.00 668.60 670.64 658.34 668.43
  C 647.37 666.08 636.43 663.40 625.44 661.84
  Q 614.68 660.30 603.91 658.84
  C 574.86 654.88 550.25 653.93 515.65 653.41
  Q 515.25 653.41 515.25 653.80
  L 515.25 657.50
  Q 515.25 658.00 514.75 658.00
  L 510.95 658.00
  Q 510.41 658.00 510.41 657.45
  Z"
/>
<rect fill="#ffffff" x="-2.43" y="-15.66" transform="translate(512.92,287.91) rotate(-0.2)" width="4.86" height="31.32" rx="0.26"/>
<rect fill="#ffffff" x="-2.39" y="-15.64" transform="translate(512.87,332.34) rotate(-0.1)" width="4.78" height="31.28" rx="0.26"/>
<rect fill="#ffffff" x="510.48" y="360.78" width="4.82" height="31.44" rx="0.27"/>
<rect fill="#ffffff" x="-2.42" y="-15.65" transform="translate(512.90,420.91) rotate(-0.1)" width="4.84" height="31.30" rx="0.26"/>
<rect fill="#ffffff" x="-2.39" y="-15.73" transform="translate(512.88,465.15) rotate(-0.1)" width="4.78" height="31.46" rx="0.26"/>
<rect fill="#ffffff" x="510.48" y="493.76" width="4.78" height="31.22" rx="0.27"/>
<rect fill="#ffffff" x="-2.39" y="-15.80" transform="translate(512.88,553.57) rotate(-0.1)" width="4.78" height="31.60" rx="0.27"/>
<rect fill="#ffffff" x="-2.41" y="-15.66" transform="translate(512.89,597.91) rotate(-0.1)" width="4.82" height="31.32" rx="0.26"/>
<path fill="#ffffff" d="
  M 516.00 714.94
  Q 515.68 715.30 515.17 715.38
  C 504.42 717.20 500.64 704.06 510.05 700.21
  Q 510.51 700.03 510.51 699.53
  L 510.48 671.38
  Q 510.48 670.75 511.12 670.75
  L 514.62 670.75
  Q 515.25 670.75 515.25 671.37
  L 515.25 699.26
  Q 515.25 699.84 515.75 700.14
  Q 523.51 704.63 518.98 712.74
  Q 518.17 714.19 516.62 714.58
  Q 516.26 714.67 516.00 714.94
  Z"
/>
</svg>
