<?xml version="1.0" encoding="UTF-8" standalone="no"?>
<!DOCTYPE svg PUBLIC "-//W3C//DTD SVG 1.1//EN" "http://www.w3.org/Graphics/SVG/1.1/DTD/svg11.dtd">
<svg width = "32" height = "32" xmlns="http://www.w3.org/2000/svg" version="1.1" viewBox="0 0 1024 1024">
<path fill="#ffffff" d="
  M 263.92 669.97
  A 0.27 0.27 0.0 0 1 263.75 669.72
  L 263.75 344.76
  Q 263.75 344.23 264.26 344.05
  L 513.51 258.78
  Q 514.00 258.61 514.49 258.78
  L 763.47 343.97
  A 1.16 1.15 9.6 0 1 764.25 345.06
  L 764.25 669.30
  Q 764.25 669.75 763.83 669.92
  L 514.34 771.10
  Q 513.80 771.32 513.25 771.09
  L 263.92 669.97
  Z
  M 288.18 349.90
  Q 398.67 388.52 509.14 427.20
  C 511.70 428.10 513.25 429.97 516.45 428.43
  Q 519.26 427.07 519.32 427.05
  Q 630.13 388.27 741.00 349.46
  A 0.22 0.22 0.0 0 0 740.99 349.04
  L 515.00 271.33
  A 3.71 3.71 0.0 0 0 512.60 271.33
  L 287.10 348.87
  A 0.31 0.30 -30.3 0 0 286.97 349.36
  C 287.38 349.82 287.71 349.73 288.18 349.90
  Z
  M 277.50 662.22
  L 505.20 754.60
  Q 505.75 754.82 505.75 754.23
  L 505.75 442.48
  Q 505.75 441.93 505.23 441.74
  L 276.98 361.77
  Q 276.50 361.60 276.50 362.11
  L 276.50 660.74
  Q 276.50 661.81 277.50 662.22
  Z
  M 523.04 754.52
  Q 636.09 708.62 748.71 662.98
  Q 749.42 662.69 751.00 662.37
  Q 751.50 662.27 751.50 661.76
  L 751.50 363.44
  Q 751.50 361.48 749.65 362.13
  L 522.63 441.63
  Q 522.25 441.76 522.25 442.16
  L 522.25 753.98
  Q 522.25 754.84 523.04 754.52
  Z"
/>
<rect fill="#ffffff" x="509.76" y="278.25" width="7.74" height="31.74" rx="0.31"/>
<rect fill="#ffffff" x="509.76" y="325.76" width="7.74" height="31.56" rx="0.27"/>
<rect fill="#ffffff" x="509.75" y="372.96" width="7.74" height="31.96" rx="0.27"/>
<rect fill="#ffffff" x="-15.95" y="-3.88" transform="translate(481.52,600.52) rotate(-17.1)" width="31.90" height="7.76" rx="0.27"/>
<path fill="#ffffff" d="
  M 560.50 608.27
  Q 560.53 608.45 560.47 608.62
  Q 560.36 608.91 560.07 608.82
  L 530.74 599.82
  Q 530.19 599.65 530.28 599.08
  C 530.54 597.28 532.16 594.51 531.53 592.92
  A 0.61 0.60 88.0 0 1 532.27 592.12
  L 562.05 601.27
  Q 562.76 601.48 562.51 602.19
  L 560.56 607.72
  Q 560.46 607.99 560.50 608.27
  Z"
/>
<rect fill="#ffffff" x="-15.89" y="-3.91" transform="translate(591.64,614.41) rotate(17.1)" width="31.78" height="7.82" rx="0.27"/>
<rect fill="#ffffff" x="-16.00" y="-3.84" transform="translate(436.22,614.41) rotate(-17.0)" width="32.00" height="7.68" rx="0.82"/>
<rect fill="#ffffff" x="-15.97" y="-3.88" transform="translate(390.85,628.32) rotate(-17.1)" width="31.94" height="7.76" rx="0.51"/>
<rect fill="#ffffff" x="-15.91" y="-3.91" transform="translate(637.01,628.34) rotate(17.1)" width="31.82" height="7.82" rx="0.53"/>
<path fill="#ffffff" d="
  M 666.82 641.57
  A 0.73 0.73 0.0 0 1 666.33 640.66
  L 668.00 635.14
  Q 668.39 633.86 669.67 634.25
  L 697.65 642.86
  A 1.18 1.18 0.0 0 1 698.42 644.36
  L 696.43 650.23
  Q 696.29 650.65 695.87 650.52
  L 666.82 641.57
  Z"
/>
<rect fill="#ffffff" x="-15.96" y="-3.85" transform="translate(345.49,642.26) rotate(-17.0)" width="31.92" height="7.70" rx="0.47"/>
<rect fill="#ffffff" x="-15.88" y="-3.89" transform="translate(727.73,656.17) rotate(17.0)" width="31.76" height="7.78" rx="0.27"/>
<rect fill="#ffffff" x="-15.97" y="-3.86" transform="translate(300.15,656.16) rotate(-17.0)" width="31.94" height="7.72" rx="0.27"/>
</svg>
