<?xml version="1.0" encoding="UTF-8" standalone="no"?>
<!DOCTYPE svg PUBLIC "-//W3C//DTD SVG 1.1//EN" "http://www.w3.org/Graphics/SVG/1.1/DTD/svg11.dtd">
<svg width = "32" height = "32" xmlns="http://www.w3.org/2000/svg" version="1.1" viewBox="0 0 1024 1024">
<path fill="#ffffff" d="
  M 322.48 762.69
  C 319.26 759.46 313.85 754.70 312.70 750.23
  C 311.55 745.74 309.75 741.79 309.75 737.09
  Q 309.75 512.77 309.75 288.45
  C 309.75 282.44 311.80 273.16 315.72 268.50
  C 322.82 260.04 327.10 256.81 336.75 251.18
  C 363.28 235.73 395.13 229.62 424.69 224.44
  Q 433.19 222.95 441.39 222.09
  C 454.93 220.67 468.47 219.07 482.12 218.66
  C 489.19 218.45 493.90 218.30 503.29 217.89
  C 515.33 217.37 527.07 218.32 539.99 218.60
  Q 549.57 218.81 557.96 219.60
  C 570.92 220.81 584.06 221.89 596.71 223.88
  C 617.87 227.22 632.91 230.52 653.61 236.60
  C 660.68 238.67 667.69 241.83 674.67 244.58
  C 682.32 247.59 688.67 251.74 695.57 255.91
  C 701.07 259.23 705.17 264.40 709.40 269.12
  C 712.06 272.09 714.41 281.59 714.34 285.59
  C 714.06 300.92 714.47 317.92 714.48 331.57
  Q 714.54 505.91 714.47 680.26
  C 714.47 699.34 714.08 718.80 714.35 738.09
  C 714.42 743.34 711.91 751.70 708.36 755.66
  C 704.33 760.14 700.72 764.62 695.47 767.82
  C 689.48 771.47 683.47 775.39 677.14 778.13
  Q 651.72 789.14 624.50 794.75
  Q 598.94 800.02 589.99 800.97
  C 566.74 803.44 551.32 805.26 531.85 805.47
  C 511.95 805.69 485.89 806.22 469.25 804.54
  C 454.55 803.06 439.77 802.00 425.20 799.47
  C 403.91 795.76 382.10 791.99 361.93 784.09
  C 354.15 781.05 346.22 778.34 339.03 774.00
  C 333.17 770.46 327.28 767.52 322.48 762.69
  Z
  M 324.99 296.39
  C 327.78 299.31 330.77 301.89 333.77 304.57
  C 337.41 307.82 343.17 310.37 347.50 312.72
  C 354.75 316.66 362.49 319.16 370.25 321.92
  Q 376.17 324.03 382.38 325.61
  C 405.65 331.52 426.40 335.38 450.69 337.74
  C 487.04 341.28 524.09 341.93 560.50 338.80
  C 598.83 335.50 634.70 330.36 669.82 316.21
  C 677.61 313.07 686.82 308.03 693.06 302.57
  C 699.13 297.25 702.72 293.20 704.36 285.39
  C 705.06 282.09 702.49 273.99 700.21 271.50
  Q 696.63 267.59 692.80 263.91
  C 688.29 259.57 682.50 256.94 677.03 253.84
  C 669.93 249.81 661.96 247.44 654.32 244.70
  Q 647.51 242.27 640.46 240.51
  C 620.68 235.57 609.36 233.55 587.89 230.46
  C 578.58 229.12 568.81 228.51 559.26 227.61
  Q 549.15 226.66 539.32 226.43
  C 526.57 226.13 514.18 225.40 501.22 225.96
  C 489.92 226.44 478.63 226.25 467.43 227.37
  C 456.02 228.52 442.72 229.23 433.08 230.86
  Q 420.58 232.96 408.13 235.15
  Q 382.89 239.58 358.99 248.60
  C 346.28 253.40 334.85 259.84 325.38 269.70
  C 322.13 273.08 321.01 278.16 319.74 282.53
  Q 319.60 283.00 319.74 283.47
  C 320.92 287.62 321.94 293.21 324.99 296.39
  Z
  M 510.35 656.25
  L 513.85 656.25
  Q 514.95 656.25 514.95 657.35
  L 514.85 674.72
  Q 514.84 675.28 515.41 675.28
  Q 545.98 675.44 559.43 676.87
  C 572.79 678.30 586.33 679.44 599.36 681.59
  Q 618.94 684.82 626.73 686.55
  Q 634.94 688.38 653.14 693.69
  C 659.83 695.64 666.50 698.65 673.16 701.22
  C 682.08 704.66 689.30 709.21 697.09 714.19
  C 699.98 716.03 702.08 718.50 704.51 720.88
  A 0.44 0.43 22.2 0 0 705.25 720.57
  Q 705.25 513.29 705.25 306.06
  Q 705.25 305.21 704.88 302.75
  Q 704.77 302.06 704.33 302.60
  C 698.22 310.02 686.81 316.65 678.05 320.48
  Q 652.31 331.72 624.73 337.40
  Q 601.61 342.16 590.19 343.70
  Q 577.92 345.35 556.97 347.02
  C 543.16 348.12 529.94 348.45 516.26 348.54
  Q 515.06 348.55 515.05 349.76
  L 514.85 376.96
  Q 514.84 377.51 514.29 377.51
  L 510.65 377.49
  Q 510.00 377.48 510.00 376.84
  L 510.00 349.79
  Q 510.00 349.18 509.41 349.02
  Q 507.78 348.59 505.24 348.58
  Q 472.79 348.46 437.34 344.05
  C 428.66 342.97 419.37 341.17 410.36 339.64
  Q 400.28 337.93 390.84 335.43
  Q 383.92 333.59 376.99 331.75
  C 359.54 327.13 344.01 320.41 327.37 309.69
  C 324.28 307.70 322.12 305.50 320.06 302.69
  A 0.59 0.58 27.0 0 0 319.00 303.03
  L 319.00 720.96
  A 0.56 0.56 0.0 0 0 320.01 721.30
  C 322.39 718.15 325.04 715.72 328.52 713.48
  Q 347.15 701.49 371.52 693.81
  C 403.71 683.67 436.79 679.16 469.70 676.61
  C 482.75 675.60 496.11 675.45 509.37 675.16
  Q 510.02 675.15 510.02 674.50
  L 509.96 656.64
  Q 509.96 656.25 510.35 656.25
  Z
  M 337.99 764.60
  C 349.33 771.38 355.90 774.29 368.37 778.57
  Q 377.07 781.55 385.43 783.68
  Q 417.47 791.85 443.75 794.26
  C 457.91 795.56 471.72 797.03 486.24 797.39
  C 507.84 797.93 532.95 798.58 559.55 796.18
  Q 569.30 795.30 579.04 794.35
  C 597.32 792.57 615.52 789.18 633.41 785.07
  C 651.60 780.90 670.26 774.66 686.28 764.92
  C 691.08 761.99 694.71 758.22 698.79 754.30
  C 702.22 750.99 703.42 745.80 704.65 741.37
  Q 704.79 740.88 704.66 740.39
  C 703.54 736.39 702.56 730.90 699.63 727.81
  C 695.47 723.43 691.77 719.40 686.40 716.32
  C 673.38 708.87 664.10 704.94 649.44 700.27
  C 642.36 698.01 634.57 696.37 627.13 694.56
  Q 618.46 692.46 610.22 691.17
  C 599.88 689.55 589.25 687.73 579.21 686.68
  Q 547.47 683.34 515.70 683.08
  A 1.00 0.99 -3.7 0 0 514.70 684.21
  L 515.04 686.68
  Q 515.15 687.50 514.32 687.50
  L 510.37 687.50
  Q 509.67 687.50 509.72 686.80
  L 509.92 684.15
  Q 510.00 683.09 508.94 683.10
  Q 491.83 683.21 475.11 684.08
  C 466.26 684.55 455.55 685.89 445.75 686.53
  Q 436.55 687.13 409.26 692.03
  C 385.34 696.33 359.38 703.23 338.49 715.99
  C 334.15 718.64 324.34 726.23 322.64 731.02
  Q 320.98 735.71 319.84 740.59
  Q 319.73 741.07 319.88 741.53
  C 321.08 745.23 321.96 750.15 324.68 753.02
  C 328.92 757.49 332.56 761.35 337.99 764.60
  Z"
/>
<circle fill="#ffffff" cx="512.19" cy="290.78" r="7.93"/>
<rect fill="#ffffff" x="-2.45" y="-15.64" transform="translate(512.39,317.67) rotate(0.2)" width="4.90" height="31.28" rx="0.26"/>
<rect fill="#ffffff" x="509.98" y="390.46" width="4.80" height="31.48" rx="0.26"/>
<rect fill="#ffffff" x="509.98" y="434.76" width="4.84" height="31.32" rx="0.26"/>
<rect fill="#ffffff" x="-2.41" y="-15.62" transform="translate(512.40,494.84) rotate(0.2)" width="4.82" height="31.24" rx="0.34"/>
<rect fill="#ffffff" x="-2.40" y="-15.61" transform="translate(512.40,538.89) rotate(0.1)" width="4.80" height="31.22" rx="0.40"/>
<rect fill="#ffffff" x="-2.39" y="-15.67" transform="translate(512.37,583.31) rotate(-0.1)" width="4.78" height="31.34" rx="0.26"/>
<rect fill="#ffffff" x="-2.39" y="-15.70" transform="translate(512.38,627.64) rotate(-0.1)" width="4.78" height="31.40" rx="0.27"/>
<path fill="#ffffff" d="
  M 518.65 742.01
  C 511.30 751.75 496.34 737.80 509.23 729.86
  A 1.87 1.86 -16.1 0 0 510.11 728.28
  L 509.95 700.95
  Q 509.95 700.36 510.54 700.39
  L 514.21 700.55
  Q 514.84 700.58 514.84 701.21
  L 514.74 728.62
  Q 514.74 729.19 515.21 729.54
  C 519.39 732.66 522.31 737.16 518.65 742.01
  Z"
/>
</svg>
