<?xml version="1.0" encoding="UTF-8" standalone="no"?>
<!DOCTYPE svg PUBLIC "-//W3C//DTD SVG 1.1//EN" "http://www.w3.org/Graphics/SVG/1.1/DTD/svg11.dtd">
<svg width = "32" height = "32" xmlns="http://www.w3.org/2000/svg" version="1.1" viewBox="0 0 1024 1024">
<path fill="#e7e7e7" d="
  M 792.35 491.47
  Q 785.71 485.15 782.07 477.04
  C 768.56 446.88 795.43 414.74 827.07 420.92
  C 844.46 424.31 858.57 439.72 859.54 457.80
  C 860.87 482.31 842.32 500.83 818.01 501.22
  Q 817.48 501.23 817.23 501.69
  Q 791.23 549.76 744.84 579.84
  C 708.67 603.28 653.90 616.18 623.82 574.41
  C 610.17 555.46 605.02 529.85 604.62 506.23
  C 604.42 494.28 604.60 482.00 604.03 470.25
  C 601.76 423.32 588.18 363.75 536.99 347.03
  C 525.11 343.14 510.97 341.73 497.92 343.02
  C 449.07 347.84 403.63 374.86 367.39 406.63
  C 288.54 475.77 236.19 574.54 221.65 678.27
  Q 221.46 679.63 222.66 680.27
  Q 239.41 689.30 243.80 706.35
  C 248.13 723.20 241.43 741.16 226.72 750.71
  C 206.22 764.01 178.19 756.05 167.93 733.71
  C 157.28 710.53 170.11 683.99 194.90 677.37
  Q 195.39 677.24 195.44 676.74
  Q 196.22 669.22 196.99 664.76
  Q 218.81 537.57 300.34 438.08
  C 339.26 390.58 392.23 346.58 450.05 326.55
  C 479.05 316.50 511.69 312.22 541.45 320.94
  C 584.03 333.42 610.19 368.56 621.43 410.27
  Q 629.86 441.54 630.32 468.45
  Q 630.64 486.71 630.97 505.00
  C 631.41 528.54 637.06 561.55 661.60 572.12
  C 681.38 580.64 707.31 571.47 724.90 561.09
  Q 767.87 535.73 792.47 492.31
  Q 792.74 491.84 792.35 491.47
  Z"
/>
</svg>
