<?xml version="1.0" encoding="UTF-8" standalone="no"?>
<!DOCTYPE svg PUBLIC "-//W3C//DTD SVG 1.1//EN" "http://www.w3.org/Graphics/SVG/1.1/DTD/svg11.dtd">
<svg width = "32" height = "32" xmlns="http://www.w3.org/2000/svg" version="1.1" viewBox="0 0 1024 1024">
<path fill="#eaeaea" d="
  M 253.25 272.54
  L 253.25 379.91
  A 0.34 0.34 0.0 0 1 252.91 380.25
  L 231.09 380.25
  A 0.34 0.34 0.0 0 1 230.75 379.91
  L 230.75 251.09
  A 0.34 0.34 0.0 0 1 231.09 250.75
  L 359.65 250.75
  A 0.34 0.34 0.0 0 1 359.99 251.09
  L 360.02 272.04
  A 0.34 0.34 0.0 0 1 359.68 272.38
  L 253.59 272.20
  A 0.34 0.34 0.0 0 0 253.25 272.54
  Z"
/>
<path fill="#eaeaea" d="
  M 664.57 272.21
  A 0.32 0.32 0.0 0 1 664.25 271.89
  L 664.25 251.25
  Q 664.25 250.75 664.75 250.75
  L 793.00 250.75
  A 0.50 0.50 0.0 0 1 793.50 251.25
  L 793.50 379.50
  Q 793.50 380.00 793.00 380.00
  L 771.51 380.00
  A 0.53 0.53 0.0 0 1 770.98 379.47
  Q 771.02 327.99 771.00 277.00
  Q 771.00 274.93 770.54 272.91
  Q 770.42 272.38 769.86 272.38
  L 664.57 272.21
  Z"
/>
<path fill="#eaeaea" d="
  M 354.33 617.60
  A 0.94 0.94 0.0 0 1 353.75 616.73
  L 353.75 404.29
  Q 353.75 403.83 354.19 403.68
  L 517.45 347.84
  Q 517.92 347.68 518.39 347.84
  L 681.49 403.61
  Q 682.00 403.79 682.00 404.32
  L 682.00 616.72
  Q 682.00 617.25 681.51 617.45
  Q 599.63 650.53 518.02 683.74
  C 517.24 684.06 516.20 683.23 515.68 683.02
  Q 435.57 650.42 354.33 617.60
  Z
  M 385.16 409.39
  Q 449.44 431.87 513.80 454.10
  Q 518.11 455.59 521.22 454.53
  Q 548.76 445.16 651.16 409.10
  Q 652.11 408.76 651.15 408.44
  L 518.29 363.63
  Q 517.84 363.48 517.36 363.64
  C 486.12 374.12 384.23 408.32 384.25 408.73
  Q 384.27 409.04 384.55 409.15
  Q 384.85 409.28 385.16 409.39
  Z
  M 369.21 606.55
  L 505.79 661.97
  A 0.34 0.33 10.8 0 0 506.25 661.66
  L 506.25 474.63
  Q 506.25 474.03 505.68 473.84
  L 369.02 425.94
  Q 368.41 425.73 368.39 426.37
  C 368.00 436.35 368.25 446.46 368.25 456.43
  Q 368.25 530.96 368.25 605.13
  A 1.53 1.52 -79.3 0 0 369.21 606.55
  Z
  M 529.99 473.77
  A 0.73 0.73 0.0 0 0 529.50 474.46
  L 529.50 661.11
  A 0.73 0.73 0.0 0 0 530.50 661.78
  L 666.79 606.50
  A 0.73 0.73 0.0 0 0 667.25 605.83
  L 667.25 426.68
  A 0.73 0.73 0.0 0 0 666.28 425.99
  L 529.99 473.77
  Z"
/>
<path fill="#eaeaea" d="
  M 771.00 749.75
  L 771.00 642.74
  A 0.49 0.49 0.0 0 1 771.49 642.25
  L 793.01 642.25
  A 0.49 0.49 0.0 0 1 793.50 642.74
  L 793.50 771.01
  A 0.49 0.49 0.0 0 1 793.01 771.50
  L 664.74 771.50
  A 0.49 0.49 0.0 0 1 664.25 771.01
  L 664.25 750.75
  A 0.49 0.49 0.0 0 1 664.74 750.26
  L 770.51 750.24
  A 0.49 0.49 0.0 0 0 771.00 749.75
  Z"
/>
<path fill="#eaeaea" d="
  M 252.35 751.50
  L 358.53 751.50
  A 0.35 0.35 0.0 0 1 358.88 751.85
  L 359.04 772.40
  A 0.35 0.35 0.0 0 1 358.69 772.75
  L 229.85 772.77
  A 0.35 0.35 0.0 0 1 229.50 772.42
  L 229.50 644.10
  A 0.35 0.35 0.0 0 1 229.85 643.75
  L 251.65 643.75
  A 0.35 0.35 0.0 0 1 252.00 644.10
  L 252.00 751.15
  A 0.35 0.35 0.0 0 0 252.35 751.50
  Z"
/>
</svg>
