<?xml version="1.0" encoding="UTF-8" standalone="no"?>
<!DOCTYPE svg PUBLIC "-//W3C//DTD SVG 1.1//EN" "http://www.w3.org/Graphics/SVG/1.1/DTD/svg11.dtd">
<svg width = "32" height = "32" xmlns="http://www.w3.org/2000/svg" version="1.1" viewBox="0 0 1024 1024">
<path fill="#ffffff" d="
  M 299.34 697.59
  Q 299.00 697.35 299.00 696.94
  L 299.00 326.49
  A 1.21 1.21 0.0 0 1 299.53 325.49
  L 404.42 253.55
  Q 404.86 253.25 405.39 253.25
  L 619.04 253.25
  Q 619.56 253.25 619.99 253.55
  L 725.06 325.60
  Q 725.50 325.91 725.50 326.45
  L 725.50 696.52
  Q 725.50 697.04 725.07 697.33
  Q 672.88 733.37 620.54 769.01
  C 619.67 769.61 618.86 770.00 617.75 770.00
  Q 511.61 769.99 405.47 770.00
  Q 404.95 770.00 404.52 769.71
  L 299.34 697.59
  Z
  M 314.40 325.91
  L 409.25 390.96
  Q 409.65 391.23 410.13 391.23
  Q 510.76 391.29 611.40 391.23
  C 612.28 391.23 613.30 390.86 614.42 391.02
  Q 614.99 391.10 615.46 390.77
  L 709.22 326.46
  A 0.73 0.73 0.0 0 0 709.22 325.25
  L 615.23 260.80
  Q 614.78 260.50 614.24 260.50
  Q 512.75 260.50 411.26 260.50
  C 409.95 260.50 408.39 261.13 407.49 261.74
  Q 360.91 293.78 314.40 325.62
  A 0.18 0.17 45.7 0 0 314.40 325.91
  Z
  M 405.25 398.89
  A 0.31 0.31 0.0 0 0 405.12 398.64
  L 307.49 331.68
  A 0.31 0.31 0.0 0 0 307.00 331.94
  L 306.99 691.25
  A 0.31 0.31 0.0 0 0 307.48 691.51
  L 405.12 624.53
  A 0.31 0.31 0.0 0 0 405.25 624.28
  L 405.25 398.89
  Z
  M 622.94 627.06
  Q 669.94 659.26 716.99 691.54
  A 0.33 0.33 0.0 0 0 717.50 691.27
  L 717.50 332.55
  A 0.74 0.74 0.0 0 0 716.34 331.94
  Q 669.89 363.80 623.17 395.64
  Q 621.25 396.95 621.25 398.25
  Q 621.24 507.34 621.26 616.42
  C 621.26 618.63 621.68 621.75 621.43 624.50
  Q 621.30 625.94 622.94 627.06
  Z
  M 613.25 398.94
  A 0.43 0.43 0.0 0 0 612.82 398.51
  L 413.68 398.51
  A 0.43 0.43 0.0 0 0 413.25 398.94
  L 413.25 624.32
  A 0.43 0.43 0.0 0 0 413.68 624.75
  L 612.82 624.75
  A 0.43 0.43 0.0 0 0 613.25 624.32
  L 613.25 398.94
  Z
  M 613.25 632.26
  A 0.26 0.26 0.0 0 0 612.99 632.00
  L 413.51 632.00
  A 0.26 0.26 0.0 0 0 413.25 632.26
  L 413.25 762.48
  A 0.26 0.26 0.0 0 0 413.51 762.74
  L 612.99 762.74
  A 0.26 0.26 0.0 0 0 613.25 762.48
  L 613.25 632.26
  Z
  M 404.30 759.04
  A 0.61 0.61 0.0 0 0 405.25 758.54
  L 405.25 635.96
  A 0.61 0.61 0.0 0 0 404.30 635.46
  L 314.90 696.75
  A 0.61 0.61 0.0 0 0 314.90 697.75
  L 404.30 759.04
  Z
  M 622.12 636.99
  A 0.56 0.56 0.0 0 0 621.25 637.45
  L 621.25 757.21
  A 0.56 0.56 0.0 0 0 622.12 757.67
  L 709.44 697.79
  A 0.56 0.56 0.0 0 0 709.44 696.87
  L 622.12 636.99
  Z"
/>
<rect fill="#ffffff" x="407.75" y="265.57" width="4.74" height="31.44" rx="0.56"/>
<rect fill="#ffffff" x="614.25" y="265.69" width="4.76" height="31.30" rx="0.33"/>
<rect fill="#ffffff" x="407.75" y="309.75" width="4.76" height="31.50" rx="0.43"/>
<rect fill="#ffffff" x="-2.38" y="-15.73" transform="translate(616.63,325.50) rotate(-0.1)" width="4.76" height="31.46" rx="0.27"/>
<rect fill="#ffffff" x="407.76" y="354.21" width="4.74" height="31.28" rx="0.36"/>
<rect fill="#ffffff" x="614.26" y="354.24" width="4.74" height="31.24" rx="0.43"/>
</svg>
