<?xml version="1.0" encoding="UTF-8" standalone="no"?>
<!DOCTYPE svg PUBLIC "-//W3C//DTD SVG 1.1//EN" "http://www.w3.org/Graphics/SVG/1.1/DTD/svg11.dtd">
<svg width = "32" height = "32" xmlns="http://www.w3.org/2000/svg" version="1.1" viewBox="0 0 1024 1024">
<path fill="#eaeaea" d="
  M 423.88 363.70
  L 511.75 275.06
  A 0.32 0.32 0.0 0 1 512.21 275.06
  L 600.08 363.70
  A 0.32 0.32 0.0 0 1 599.86 364.25
  L 424.10 364.25
  A 0.32 0.32 0.0 0 1 423.88 363.70
  Z"
/>
<path fill="#eaeaea" d="
  M 757.77 510.27
  L 669.32 598.12
  A 0.34 0.33 -22.6 0 1 668.75 597.89
  L 668.75 421.86
  Q 668.75 421.27 669.17 421.69
  L 757.69 509.47
  Q 758.13 509.91 757.77 510.27
  Z"
/>
<path fill="#eaeaea" d="
  M 272.46 509.71
  L 360.83 421.92
  Q 361.27 421.48 361.27 422.11
  L 361.27 597.77
  Q 361.27 598.54 360.72 598.00
  L 272.49 510.45
  Q 272.11 510.07 272.46 509.71
  Z"
/>
<circle fill="#eaeaea" cx="514.24" cy="507.98" r="16.79"/>
<path fill="#eaeaea" d="
  M 599.16 658.57
  L 512.24 746.09
  Q 511.77 746.55 511.31 746.09
  L 423.58 657.67
  A 0.25 0.24 67.3 0 1 423.75 657.25
  L 600.15 657.25
  A 0.40 0.39 14.0 0 1 600.50 657.83
  Q 600.27 658.26 599.80 658.29
  Q 599.43 658.30 599.16 658.57
  Z"
/>
</svg>
