<?xml version="1.0" encoding="UTF-8" standalone="no"?>
<!DOCTYPE svg PUBLIC "-//W3C//DTD SVG 1.1//EN" "http://www.w3.org/Graphics/SVG/1.1/DTD/svg11.dtd">
<svg width = "32" height = "32" xmlns="http://www.w3.org/2000/svg" version="1.1" viewBox="0 0 1024 1024">
<path fill="#ffffff" d="
  M 520.37 798.01
  C 364.26 802.33 234.64 681.71 226.01 526.74
  C 221.79 451.05 249.67 374.36 300.52 319.03
  C 346.73 268.75 411.20 234.46 480.18 227.61
  C 487.52 226.88 495.08 225.92 502.22 225.76
  Q 531.72 225.12 555.75 229.02
  C 658.60 245.75 743.14 314.25 779.92 411.63
  C 784.25 423.08 788.60 436.53 791.10 448.97
  C 794.30 464.82 795.72 473.85 797.06 489.01
  C 798.53 505.62 798.34 521.58 796.67 537.99
  C 795.85 545.97 795.25 553.82 793.69 561.67
  Q 790.32 578.73 789.01 583.50
  C 770.23 652.39 728.78 711.94 669.04 750.93
  C 631.22 775.62 587.32 791.91 542.11 796.28
  C 534.86 796.98 527.47 797.81 520.37 798.01
  Z
  M 469.75 255.48
  C 383.23 270.10 309.08 326.70 273.96 407.72
  Q 270.73 415.18 267.76 422.47
  Q 267.44 423.28 268.25 423.57
  L 510.91 511.63
  A 0.81 0.80 -70.3 0 1 511.39 512.66
  L 423.38 755.17
  A 1.11 1.10 18.5 0 0 424.10 756.60
  C 440.90 761.62 457.88 766.87 474.68 769.06
  Q 502.80 772.71 522.50 771.66
  Q 526.82 771.43 540.67 769.97
  C 630.61 760.49 708.59 703.62 747.05 622.31
  Q 749.47 617.19 756.05 601.06
  Q 756.29 600.48 755.69 600.26
  L 512.72 512.08
  Q 512.05 511.84 512.27 511.23
  L 600.30 268.71
  A 1.21 1.21 0.0 0 0 599.51 267.14
  C 582.43 261.93 564.63 256.62 548.00 254.52
  C 522.24 251.26 496.15 251.02 469.75 255.48
  Z"
/>
</svg>
