<?xml version="1.0" encoding="UTF-8" standalone="no"?>
<!DOCTYPE svg PUBLIC "-//W3C//DTD SVG 1.1//EN" "http://www.w3.org/Graphics/SVG/1.1/DTD/svg11.dtd">
<svg width = "32" height = "32" xmlns="http://www.w3.org/2000/svg" version="1.1" viewBox="0 0 1024 1024">
<path fill="#ffffff" d="
  M 283.45 672.40
  Q 282.53 671.54 283.13 670.43
  L 511.76 251.48
  A 0.44 0.44 0.0 0 1 512.53 251.48
  L 741.29 670.67
  Q 741.55 671.15 741.20 671.58
  Q 739.81 673.28 738.23 674.73
  Q 682.76 725.88 627.50 777.26
  C 625.78 778.86 624.14 779.50 621.64 779.50
  Q 510.97 779.50 400.30 779.50
  C 399.30 779.50 398.45 778.87 397.77 778.24
  Q 340.99 725.67 283.45 672.40
  Z
  M 294.42 671.28
  A 0.30 0.30 0.0 0 0 294.48 671.65
  L 396.09 764.03
  A 0.30 0.30 0.0 0 0 396.58 763.88
  L 504.57 288.56
  A 0.30 0.30 0.0 0 0 504.02 288.35
  L 294.42 671.28
  Z
  M 628.52 763.80
  L 729.29 672.20
  Q 729.91 671.65 729.51 670.92
  L 521.15 290.22
  Q 519.28 286.79 520.14 290.60
  L 627.59 763.51
  Q 627.80 764.46 628.52 763.80
  Z
  M 404.64 771.37
  A 0.31 0.31 0.0 0 0 404.94 771.75
  L 619.24 771.75
  A 0.31 0.31 0.0 0 0 619.54 771.37
  L 512.39 303.46
  A 0.31 0.31 0.0 0 0 511.79 303.46
  L 404.64 771.37
  Z"
/>
</svg>
