<?xml version="1.0" encoding="UTF-8" standalone="no"?>
<!DOCTYPE svg PUBLIC "-//W3C//DTD SVG 1.1//EN" "http://www.w3.org/Graphics/SVG/1.1/DTD/svg11.dtd">
<svg width = "32" height = "32" xmlns="http://www.w3.org/2000/svg" version="1.1" viewBox="0 0 1024 1024">
<path fill="#ffffff" d="
  M 222.75 678.76
  L 222.75 345.07
  A 0.32 0.32 0.0 0 1 222.91 344.80
  L 511.78 178.01
  A 0.32 0.32 0.0 0 1 512.10 178.01
  L 800.84 344.72
  A 0.32 0.32 0.0 0 1 801.00 344.99
  L 801.00 678.67
  A 0.32 0.32 0.0 0 1 800.84 678.94
  L 511.95 845.73
  A 0.32 0.32 0.0 0 1 511.63 845.73
  L 222.91 679.03
  A 0.32 0.32 0.0 0 1 222.75 678.76
  Z
  M 253.50 660.76
  A 0.47 0.47 0.0 0 0 253.73 661.17
  L 511.70 810.11
  A 0.47 0.47 0.0 0 0 512.18 810.11
  L 770.02 661.25
  A 0.47 0.47 0.0 0 0 770.25 660.84
  L 770.25 362.99
  A 0.47 0.47 0.0 0 0 770.02 362.58
  L 512.03 213.64
  A 0.47 0.47 0.0 0 0 511.57 213.64
  L 253.74 362.47
  A 0.47 0.47 0.0 0 0 253.50 362.88
  L 253.50 660.76
  Z"
/>
<rect fill="#ffffff" x="392.99" y="492.99" width="238.00" height="37.76" rx="0.26"/>
</svg>
