<?xml version="1.0" encoding="UTF-8" standalone="no"?>
<!DOCTYPE svg PUBLIC "-//W3C//DTD SVG 1.1//EN" "http://www.w3.org/Graphics/SVG/1.1/DTD/svg11.dtd">
<svg width = "32" height = "32" xmlns="http://www.w3.org/2000/svg" version="1.1" viewBox="0 0 1024 1024">
<path fill="#ffffff" d="
  M 537.25 233.27
  C 642.07 242.47 733.04 311.35 771.77 408.45
  C 778.40 425.07 784.08 443.44 786.95 461.16
  Q 788.03 467.81 789.02 474.48
  C 791.91 493.86 791.95 511.94 790.85 531.78
  C 790.35 540.86 788.97 549.56 787.59 558.49
  C 785.51 571.86 782.09 585.59 777.79 598.51
  C 744.49 698.59 658.74 772.92 553.79 788.29
  C 547.36 789.24 541.07 790.31 534.60 790.67
  C 515.19 791.75 495.84 792.13 476.50 789.26
  C 469.40 788.20 462.09 787.37 455.23 785.83
  Q 439.71 782.36 432.00 780.02
  C 323.31 746.95 245.28 653.36 233.56 540.24
  C 225.74 464.76 250.06 386.82 299.88 329.54
  C 359.26 261.27 446.29 225.30 537.25 233.27
  Z
  M 544.38 308.88
  Q 546.71 310.96 551.26 312.26
  C 558.45 314.31 566.47 315.95 572.94 318.09
  Q 650.84 343.73 690.44 414.81
  Q 692.56 418.61 699.77 434.22
  C 703.15 441.55 711.67 445.55 719.71 444.42
  C 731.78 442.74 744.55 436.90 744.10 422.57
  Q 743.95 418.01 740.44 410.29
  Q 706.09 334.79 634.01 293.59
  C 623.29 287.47 611.28 281.89 599.65 277.77
  C 592.52 275.24 585.50 272.62 578.17 270.77
  C 570.69 268.87 561.22 265.70 554.57 266.62
  C 535.81 269.21 531.78 297.60 544.38 308.88
  Z
  M 395.14 328.38
  C 403.28 338.69 414.73 332.68 424.33 327.85
  C 434.25 322.85 444.44 319.46 454.71 315.66
  C 468.66 310.50 464.42 296.45 462.01 285.01
  C 459.25 271.95 448.91 270.12 437.77 273.81
  Q 414.87 281.42 396.28 290.75
  C 375.63 301.12 384.03 314.31 395.14 328.38
  Z"
/>
</svg>
