<?xml version="1.0" encoding="UTF-8" standalone="no"?>
<!DOCTYPE svg PUBLIC "-//W3C//DTD SVG 1.1//EN" "http://www.w3.org/Graphics/SVG/1.1/DTD/svg11.dtd">
<svg width = "32" height = "32" xmlns="http://www.w3.org/2000/svg" version="1.1" viewBox="0 0 1024 1024">
<path fill="#eaeaea" d="
  M 381.53 561.55
  Q 369.70 560.48 358.01 558.46
  C 343.22 555.90 328.31 553.53 313.80 549.61
  C 303.61 546.85 293.42 544.41 283.68 540.35
  C 276.63 537.41 269.19 534.94 263.00 530.31
  C 259.76 527.89 253.55 524.44 251.87 520.81
  Q 249.88 516.50 248.04 512.16
  Q 247.85 511.70 248.03 511.23
  C 249.53 507.44 251.45 501.38 254.81 498.92
  C 260.08 495.05 264.99 490.84 271.01 488.18
  C 289.25 480.13 302.77 476.02 324.24 470.97
  Q 348.16 465.35 381.77 461.43
  Q 382.29 461.37 382.36 460.86
  C 385.18 441.60 387.34 421.64 392.19 402.79
  C 395.78 388.81 399.23 374.41 404.24 361.16
  Q 409.37 347.63 416.16 331.92
  C 420.83 321.10 427.93 310.60 434.21 300.61
  C 440.32 290.90 449.00 282.52 456.92 274.29
  C 463.42 267.53 473.74 262.42 481.85 257.72
  Q 484.79 256.01 488.11 255.32
  Q 497.92 253.26 507.79 251.57
  Q 510.46 251.11 513.15 251.69
  Q 522.92 253.77 532.66 255.68
  Q 535.50 256.24 537.95 257.75
  Q 547.31 263.54 556.70 269.22
  Q 559.69 271.03 562.05 273.63
  Q 570.00 282.39 578.19 290.92
  Q 581.36 294.22 583.68 298.04
  Q 590.51 309.24 597.38 320.41
  C 604.06 331.26 608.32 343.85 613.14 355.61
  C 619.45 370.99 623.24 387.22 627.36 403.25
  Q 629.76 412.58 631.31 422.83
  Q 634.24 442.19 637.17 461.54
  Q 637.25 462.05 637.76 462.10
  C 653.29 463.65 668.59 466.80 684.00 469.49
  Q 695.55 471.51 718.20 478.24
  C 726.99 480.85 735.29 484.54 743.70 488.18
  C 750.20 490.98 755.79 495.92 761.48 500.08
  Q 761.92 500.41 762.14 500.91
  L 766.46 510.86
  Q 766.67 511.34 766.49 511.84
  C 764.96 515.97 763.06 521.69 759.44 524.39
  C 754.34 528.20 749.54 532.17 743.80 534.82
  C 719.81 545.90 693.63 552.05 667.67 556.45
  C 661.71 557.46 650.37 559.95 642.00 560.48
  Q 639.40 560.64 637.63 561.14
  Q 637.09 561.29 637.01 561.85
  Q 634.00 582.36 630.87 602.82
  Q 629.59 611.25 627.24 619.99
  C 623.94 632.29 621.00 645.37 616.93 656.81
  Q 611.14 673.13 604.16 688.99
  C 599.57 699.41 593.34 709.15 587.33 719.01
  C 580.65 729.95 572.24 738.94 563.38 747.88
  C 556.13 755.21 546.37 760.22 537.53 765.40
  Q 534.75 767.03 531.62 767.68
  Q 521.91 769.69 512.16 771.52
  Q 509.51 772.01 506.85 771.47
  Q 496.89 769.44 486.93 767.47
  Q 484.08 766.91 481.60 765.38
  Q 472.57 759.83 463.48 754.38
  Q 460.25 752.46 457.72 749.78
  Q 449.00 740.56 440.44 731.20
  Q 437.08 727.53 434.45 723.14
  Q 426.81 710.39 418.97 697.77
  Q 417.37 695.19 416.24 692.39
  C 410.18 677.36 403.20 662.04 399.04 646.38
  C 395.03 631.32 390.41 616.30 388.11 600.84
  Q 385.45 582.92 382.73 565.00
  Q 382.47 563.27 382.18 562.10
  Q 382.05 561.60 381.53 561.55
  Z
  M 406.57 458.41
  Q 430.13 456.76 453.76 455.34
  C 469.68 454.38 485.73 454.38 501.69 454.17
  C 544.87 453.59 588.45 455.95 631.17 461.26
  Q 631.74 461.33 631.65 460.77
  C 629.29 445.10 627.54 429.16 623.50 413.82
  C 620.12 400.94 617.23 387.77 612.33 375.43
  C 607.76 363.93 603.54 351.86 597.24 341.21
  Q 591.71 331.86 586.00 322.61
  C 580.64 313.93 572.59 306.47 565.61 299.06
  C 559.92 293.02 550.29 288.40 543.09 284.20
  Q 540.53 282.71 537.56 282.15
  Q 528.59 280.48 519.66 278.59
  C 518.64 278.37 518.01 278.54 517.05 278.72
  Q 507.89 280.41 498.78 282.15
  Q 495.69 282.74 493.02 284.30
  C 485.01 288.96 475.87 293.76 469.42 300.49
  Q 456.17 314.33 453.06 318.55
  Q 449.38 323.54 440.29 339.44
  C 433.63 351.07 428.93 363.39 424.16 375.80
  C 419.53 387.90 416.49 400.87 413.11 413.61
  Q 410.76 422.47 409.38 431.59
  Q 407.44 444.36 405.46 457.22
  A 1.05 1.04 2.2 0 0 406.57 458.41
  Z
  M 406.18 550.36
  C 434.27 553.77 464.29 555.49 491.00 556.17
  Q 538.82 557.38 583.99 554.95
  C 598.70 554.16 614.45 553.40 632.34 551.56
  Q 632.81 551.51 632.83 551.03
  C 633.47 535.10 635.08 518.91 634.31 503.06
  Q 633.55 487.54 632.66 472.02
  A 0.43 0.43 0.0 0 0 632.28 471.62
  C 610.71 469.14 588.71 467.85 567.01 467.19
  Q 523.26 465.85 479.51 467.25
  C 461.62 467.83 443.33 468.81 425.56 470.63
  Q 415.40 471.66 405.19 472.68
  A 1.68 1.68 0.0 0 0 403.67 474.27
  Q 403.06 488.00 402.44 501.76
  C 401.72 517.67 403.01 533.36 403.77 549.48
  Q 403.81 550.25 404.58 550.24
  Q 405.18 550.24 406.18 550.36
  Z
  M 754.89 502.08
  Q 750.72 499.40 746.49 496.80
  C 740.00 492.83 732.61 490.62 725.44 488.18
  C 716.62 485.18 707.21 483.25 698.02 481.17
  C 678.73 476.80 658.57 474.40 638.73 472.11
  Q 637.52 471.97 637.58 473.19
  C 638.45 488.81 639.82 504.80 639.10 520.50
  Q 638.43 534.93 637.55 549.76
  A 0.88 0.88 0.0 0 0 638.27 550.68
  C 639.85 550.99 641.74 550.56 643.02 550.45
  C 658.40 549.09 673.78 546.29 688.99 543.69
  Q 713.68 539.45 737.17 530.91
  C 743.40 528.64 748.55 525.20 754.02 521.57
  C 757.09 519.54 758.50 515.33 760.12 512.13
  Q 760.35 511.68 760.12 511.23
  C 759.12 509.25 756.51 503.12 754.89 502.08
  Z
  M 293.69 520.71
  C 299.72 524.44 305.12 528.28 311.76 530.68
  C 319.60 533.53 327.17 536.43 335.37 538.31
  C 350.64 541.82 365.50 544.81 380.99 547.18
  Q 381.53 547.26 381.51 546.71
  Q 380.97 534.23 380.39 521.74
  C 379.70 506.65 380.79 491.88 381.54 476.82
  Q 381.58 475.99 380.76 476.10
  C 356.48 479.10 330.57 484.44 308.23 493.80
  C 303.74 495.68 299.57 498.66 295.38 501.33
  C 291.97 503.51 290.37 507.85 289.02 511.46
  Q 288.85 511.90 289.07 512.32
  L 293.38 520.37
  A 0.91 0.90 3.0 0 0 293.69 520.71
  Z
  M 471.39 724.35
  C 476.81 730.12 486.06 734.41 492.86 738.62
  Q 495.35 740.15 498.20 740.74
  Q 506.88 742.53 515.59 744.26
  Q 518.26 744.79 520.93 744.28
  C 527.88 742.95 537.67 742.08 543.77 738.61
  C 551.61 734.16 560.67 729.42 566.87 722.80
  C 573.34 715.90 581.02 708.88 585.91 700.77
  C 591.73 691.14 598.05 681.64 602.52 671.58
  Q 608.44 658.23 613.53 644.53
  C 617.33 634.30 619.90 622.97 622.83 612.07
  C 627.21 595.74 629.20 579.10 631.54 562.51
  Q 631.61 561.98 631.08 562.01
  C 622.91 562.59 613.93 564.09 606.69 564.65
  C 576.50 567.02 546.29 568.88 516.00 569.04
  Q 460.89 569.33 405.82 564.48
  A 0.45 0.44 -2.0 0 0 405.34 564.99
  C 407.66 579.39 409.16 594.23 412.86 608.32
  C 416.32 621.48 419.21 635.07 424.31 647.70
  Q 428.34 657.66 432.39 667.62
  C 437.29 679.68 444.46 690.60 451.35 701.51
  C 456.61 709.86 464.62 717.16 471.39 724.35
  Z"
/>
</svg>
