<?xml version="1.0" encoding="UTF-8" standalone="no"?>
<!DOCTYPE svg PUBLIC "-//W3C//DTD SVG 1.1//EN" "http://www.w3.org/Graphics/SVG/1.1/DTD/svg11.dtd">
<svg width = "32" height = "32" xmlns="http://www.w3.org/2000/svg" version="1.1" viewBox="0 0 1024 1024">
<path fill="#ffffff" d="
  M 562.60 312.12
  A 169.60 169.60 0.0 0 1 393.00 481.72
  A 169.60 169.60 0.0 0 1 223.40 312.12
  A 169.60 169.60 0.0 0 1 393.00 142.52
  A 169.60 169.60 0.0 0 1 562.60 312.12
  Z
  M 393.40 311.40
  L 445.34 168.43
  Q 445.84 167.06 444.45 166.61
  Q 386.46 148.04 332.94 170.20
  C 293.34 186.60 263.50 218.88 248.37 258.89
  Q 248.09 259.63 248.83 259.89
  L 392.21 311.96
  Q 392.80 312.17 392.59 312.76
  L 340.78 455.51
  Q 340.26 456.95 341.71 457.43
  Q 350.83 460.47 360.12 462.58
  C 393.11 470.11 427.86 465.79 458.29 451.70
  C 495.34 434.54 523.16 403.72 537.53 365.53
  A 0.98 0.98 0.0 0 0 536.95 364.26
  L 393.82 312.30
  A 0.70 0.70 0.0 0 1 393.40 311.40
  Z"
/>
<path fill="#ffffff" d="
  M 892.20 563.11
  A 171.51 171.51 0.0 0 1 720.69 734.62
  A 171.51 171.51 0.0 0 1 549.18 563.11
  A 171.51 171.51 0.0 0 1 720.69 391.60
  A 171.51 171.51 0.0 0 1 892.20 563.11
  Z
  M 741.66 413.24
  C 739.05 415.40 737.41 415.83 736.35 419.36
  C 735.79 421.25 733.99 423.94 734.24 425.74
  Q 734.71 429.04 735.12 432.30
  Q 735.19 432.86 735.58 433.28
  L 744.27 442.78
  Q 744.63 443.18 745.17 443.30
  Q 781.92 451.26 807.73 477.31
  C 816.22 485.87 824.49 497.71 832.22 508.28
  C 834.90 511.94 845.06 511.29 847.98 510.24
  C 856.14 507.32 861.98 496.66 857.28 488.25
  C 834.55 447.52 796.81 419.74 751.01 410.25
  Q 749.16 409.87 745.08 411.25
  Q 743.37 411.83 741.66 413.24
  Z
  M 638.46 457.79
  Q 645.11 463.26 652.30 458.26
  Q 658.12 454.21 669.67 448.92
  Q 674.20 446.85 675.60 445.68
  C 683.77 438.87 676.29 416.28 663.07 421.31
  C 656.61 423.76 631.60 434.69 630.46 443.32
  C 629.74 448.80 634.41 454.46 638.46 457.79
  Z"
/>
<path fill="#ffffff" d="
  M 537.69 708.21
  A 176.51 176.51 0.0 0 1 361.18 884.72
  A 176.51 176.51 0.0 0 1 184.67 708.21
  A 176.51 176.51 0.0 0 1 361.18 531.70
  A 176.51 176.51 0.0 0 1 537.69 708.21
  Z
  M 306.30 553.95
  L 324.88 561.15
  Q 325.39 561.34 325.89 561.13
  L 363.77 545.24
  A 0.49 0.49 0.0 0 0 363.59 544.30
  Q 334.06 543.94 306.31 553.77
  A 0.10 0.09 -43.4 0 0 306.30 553.95
  Z
  M 409.27 572.62
  Q 409.82 572.18 409.79 571.54
  Q 409.78 571.19 409.87 570.87
  Q 410.93 567.06 412.73 563.56
  A 1.45 1.45 0.0 0 0 411.96 561.54
  L 375.24 547.44
  Q 374.77 547.25 374.30 547.45
  L 334.82 563.69
  Q 334.18 563.95 334.82 564.20
  L 401.98 590.01
  Q 402.38 590.16 402.53 589.77
  L 408.80 573.28
  Q 408.95 572.89 409.27 572.62
  Z
  M 398.26 549.55
  L 414.90 556.05
  Q 415.29 556.21 415.53 555.86
  C 416.44 554.50 415.72 553.73 414.37 553.24
  Q 406.42 550.33 398.48 548.82
  A 0.39 0.38 -28.6 0 0 398.26 549.55
  Z
  M 423.81 556.65
  Q 423.79 556.48 423.74 556.40
  Q 423.72 556.36 423.71 556.40
  L 422.87 558.56
  Q 422.70 559.02 423.15 559.19
  L 440.17 565.61
  A 0.37 0.37 0.0 0 0 440.48 564.95
  Q 432.43 560.38 423.89 556.75
  Q 423.82 556.72 423.81 556.65
  Z
  M 248.20 590.53
  L 278.99 602.30
  Q 280.08 602.71 280.93 601.91
  L 317.38 567.12
  Q 318.84 565.73 316.95 565.01
  L 297.47 557.60
  Q 297.01 557.42 296.56 557.61
  Q 272.95 567.72 253.49 584.49
  Q 250.53 587.03 248.07 590.05
  A 0.31 0.31 0.0 0 0 248.20 590.53
  Z
  M 409.59 592.95
  L 476.91 618.81
  Q 477.61 619.07 477.30 618.40
  Q 468.47 599.40 459.23 580.60
  C 458.17 578.44 433.57 569.83 420.94 564.99
  Q 420.45 564.80 420.26 565.28
  Q 415.37 577.61 410.73 590.03
  Q 410.18 591.52 409.46 592.51
  Q 409.25 592.81 409.59 592.95
  Z
  M 325.72 568.62
  A 0.46 0.46 0.0 0 0 325.24 568.72
  L 287.54 604.68
  A 0.46 0.46 0.0 0 0 287.69 605.44
  L 382.08 641.71
  A 0.46 0.46 0.0 0 0 382.68 641.44
  L 399.57 597.50
  A 0.46 0.46 0.0 0 0 399.31 596.90
  L 325.72 568.62
  Z
  M 485.66 622.07
  C 486.55 623.98 501.72 629.06 504.49 630.12
  A 0.37 0.37 0.0 0 0 504.94 629.60
  Q 490.78 603.88 468.70 584.55
  A 0.28 0.28 0.0 0 0 468.26 584.88
  Q 477.14 603.76 485.66 622.07
  Z
  M 274.89 608.89
  L 242.22 596.29
  Q 241.64 596.07 241.21 596.52
  Q 221.14 618.05 209.89 645.24
  Q 209.66 645.79 210.22 646.00
  L 246.28 659.83
  Q 246.93 660.08 247.27 659.48
  L 275.08 609.41
  A 0.37 0.37 0.0 0 0 274.89 608.89
  Z
  M 389.97 644.15
  A 0.55 0.55 0.0 0 0 390.28 644.86
  L 484.41 681.02
  A 0.55 0.55 0.0 0 0 485.15 680.46
  L 481.26 628.75
  A 0.55 0.55 0.0 0 0 480.91 628.28
  L 407.43 600.02
  A 0.55 0.55 0.0 0 0 406.72 600.33
  L 389.97 644.15
  Z
  M 253.68 662.08
  A 0.50 0.50 0.0 0 0 253.94 662.79
  L 358.52 702.97
  A 0.50 0.50 0.0 0 0 359.17 702.68
  L 379.56 649.61
  A 0.50 0.50 0.0 0 0 379.27 648.96
  L 282.12 611.68
  A 0.50 0.50 0.0 0 0 281.50 611.90
  L 253.68 662.08
  Z
  M 492.51 684.35
  L 524.22 696.53
  Q 524.68 696.70 524.64 696.22
  Q 522.56 670.17 512.79 645.94
  Q 511.43 642.56 509.63 639.36
  Q 509.39 638.93 508.93 638.76
  L 488.61 631.00
  A 0.36 0.36 0.0 0 0 488.13 631.36
  L 492.06 683.75
  A 0.71 0.71 0.0 0 0 492.51 684.35
  Z
  M 366.81 706.16
  L 471.24 746.26
  A 0.59 0.48 -73.9 0 0 471.91 745.80
  L 484.75 690.19
  Q 484.89 689.57 484.29 689.34
  L 387.63 652.18
  A 0.77 0.76 -68.6 0 0 386.64 652.62
  Q 377.19 677.15 368.49 700.63
  Q 367.65 702.89 366.37 704.71
  A 0.97 0.96 -62.0 0 0 366.81 706.16
  Z
  M 198.46 711.87
  L 230.46 724.19
  Q 230.95 724.38 231.07 723.87
  L 243.97 668.15
  A 0.86 0.85 -73.6 0 0 243.44 667.16
  L 207.37 653.35
  Q 206.82 653.14 206.63 653.70
  Q 197.10 681.07 197.23 710.08
  A 1.93 1.92 10.7 0 0 198.46 711.87
  Z
  M 238.34 727.21
  L 334.51 764.13
  Q 335.44 764.48 335.79 763.55
  L 355.79 711.41
  A 0.97 0.97 0.0 0 0 355.23 710.15
  L 251.03 670.10
  Q 250.61 669.94 250.51 670.38
  L 237.67 725.95
  Q 237.46 726.87 238.34 727.21
  Z
  M 491.30 692.57
  L 478.43 748.28
  A 0.81 0.80 -73.2 0 0 478.92 749.21
  L 514.73 762.99
  Q 515.25 763.20 515.50 762.70
  Q 516.86 759.94 517.75 757.00
  Q 525.34 731.89 525.03 705.55
  Q 525.02 704.96 524.47 704.75
  L 491.94 692.23
  Q 491.42 692.03 491.30 692.57
  Z
  M 342.89 766.51
  A 0.79 0.79 0.0 0 0 343.35 767.53
  L 440.01 804.66
  A 0.79 0.79 0.0 0 0 440.98 804.31
  L 468.56 754.62
  A 0.79 0.79 0.0 0 0 468.15 753.50
  L 364.10 713.54
  A 0.79 0.79 0.0 0 0 363.08 714.00
  L 342.89 766.51
  Z
  M 213.27 777.54
  L 233.68 785.41
  Q 234.26 785.64 234.21 785.01
  L 230.32 733.27
  A 1.72 1.72 0.0 0 0 229.22 731.79
  L 198.15 719.85
  Q 197.74 719.69 197.77 720.13
  Q 199.99 749.66 212.26 776.58
  A 1.88 1.86 -1.1 0 0 213.27 777.54
  Z
  M 241.11 787.85
  A 0.33 0.33 0.0 0 0 241.33 788.13
  L 315.12 816.44
  A 0.33 0.33 0.0 0 0 315.55 816.25
  L 332.52 772.08
  A 0.33 0.33 0.0 0 0 332.33 771.65
  L 237.66 735.28
  A 0.33 0.33 0.0 0 0 237.21 735.61
  L 241.11 787.85
  Z
  M 481.10 819.72
  C 494.78 805.46 504.98 788.93 512.66 771.03
  A 0.40 0.39 22.5 0 0 512.44 770.51
  L 475.87 756.47
  A 0.59 0.59 0.0 0 0 475.14 756.73
  L 447.28 807.00
  Q 447.07 807.38 447.47 807.53
  L 479.79 820.01
  Q 480.54 820.30 481.10 819.72
  Z
  M 322.74 819.06
  A 0.32 0.32 0.0 0 0 322.93 819.47
  L 396.74 847.82
  A 0.32 0.32 0.0 0 0 397.08 847.75
  L 435.03 811.60
  A 0.32 0.32 0.0 0 0 434.93 811.07
  L 340.13 774.64
  A 0.32 0.32 0.0 0 0 339.72 774.83
  L 322.74 819.06
  Z
  M 247.23 825.77
  Q 250.58 828.98 253.78 832.09
  A 0.28 0.28 0.0 0 0 254.22 831.77
  L 236.45 793.91
  Q 236.19 793.36 235.62 793.14
  L 217.57 786.18
  A 0.29 0.28 -3.7 0 0 217.21 786.58
  Q 229.56 808.79 247.23 825.77
  Z
  M 303.22 848.78
  C 303.39 848.72 305.01 843.25 305.31 842.54
  C 307.84 836.54 310.02 830.48 312.42 824.43
  Q 312.65 823.85 312.14 823.50
  Q 311.23 822.89 309.54 822.24
  Q 277.75 809.99 245.54 797.69
  A 0.37 0.37 0.0 0 0 245.08 798.19
  C 247.30 802.86 262.33 836.45 264.67 837.34
  Q 282.87 844.22 301.10 851.32
  A 0.98 0.98 0.0 0 0 302.41 850.65
  L 302.75 849.29
  Q 302.84 848.91 303.22 848.78
  Z
  M 441.99 814.01
  L 404.06 850.21
  Q 403.57 850.68 404.20 850.92
  L 424.86 858.85
  Q 425.33 859.03 425.80 858.83
  Q 453.01 847.15 474.39 826.70
  A 0.46 0.46 0.0 0 0 474.24 825.94
  L 442.83 813.85
  Q 442.36 813.66 441.99 814.01
  Z
  M 309.28 854.10
  A 0.31 0.31 0.0 0 0 309.46 854.50
  L 347.44 869.10
  A 0.31 0.31 0.0 0 0 347.66 869.09
  L 387.51 852.77
  A 0.31 0.31 0.0 0 0 387.50 852.19
  L 320.27 826.37
  A 0.31 0.31 0.0 0 0 319.87 826.55
  L 309.28 854.10
  Z
  M 281.63 850.81
  C 282.76 851.60 283.61 852.70 284.67 853.22
  Q 291.49 856.51 298.41 859.66
  Q 299.06 859.95 299.21 859.26
  L 299.54 857.77
  Q 299.62 857.39 299.26 857.26
  L 281.76 850.56
  A 0.14 0.14 0.0 0 0 281.63 850.81
  Z
  M 357.94 872.19
  Q 387.13 872.37 414.77 863.26
  Q 416.50 862.70 414.81 862.03
  L 397.38 855.24
  Q 396.91 855.05 396.45 855.25
  L 357.81 871.56
  A 0.33 0.33 0.0 0 0 357.94 872.19
  Z
  M 307.45 863.04
  Q 315.82 866.14 324.68 867.64
  Q 326.49 867.95 324.80 867.24
  Q 316.09 863.59 307.22 860.35
  Q 306.72 860.17 306.51 860.67
  Q 305.79 862.43 307.45 863.04
  Z"
/>
</svg>
