<?xml version="1.0" encoding="UTF-8" standalone="no"?>
<!DOCTYPE svg PUBLIC "-//W3C//DTD SVG 1.1//EN" "http://www.w3.org/Graphics/SVG/1.1/DTD/svg11.dtd">
<svg width = "32" height = "32" xmlns="http://www.w3.org/2000/svg" version="1.1" viewBox="0 0 1024 1024">
<path fill="#ffffff" d="
  M 331.69 697.06
  Q 329.72 695.45 329.08 694.67
  Q 314.01 676.36 298.97 658.03
  Q 297.48 656.22 296.01 653.47
  Q 285.94 634.68 275.98 615.83
  Q 273.54 611.21 272.02 606.20
  Q 266.20 586.94 260.37 567.69
  Q 258.90 562.83 258.41 557.75
  Q 256.46 537.39 254.43 517.06
  Q 254.12 514.04 254.39 511.01
  Q 256.41 487.74 258.78 464.50
  Q 259.03 462.08 259.73 459.74
  Q 265.91 439.02 272.32 418.37
  Q 273.92 413.23 276.47 408.46
  Q 285.86 390.89 295.30 373.36
  Q 297.76 368.79 301.06 364.76
  Q 313.87 349.17 326.68 333.59
  Q 329.90 329.67 333.85 326.44
  Q 348.76 314.26 363.58 301.98
  Q 367.82 298.47 372.54 295.86
  Q 390.36 286.01 408.38 276.52
  Q 413.40 273.87 418.84 272.18
  Q 438.42 266.08 458.07 260.27
  Q 463.02 258.81 468.24 258.34
  Q 491.51 256.21 500.00 255.24
  C 507.21 254.42 513.22 253.99 520.66 254.76
  Q 538.95 256.67 557.27 258.32
  Q 562.28 258.77 567.04 260.19
  Q 586.50 266.02 605.95 271.94
  Q 611.22 273.55 616.05 276.08
  Q 634.25 285.63 652.29 295.47
  Q 656.93 298.00 661.06 301.41
  Q 676.97 314.53 692.93 327.56
  Q 695.00 329.24 696.68 331.30
  Q 709.90 347.45 723.30 363.46
  Q 726.76 367.60 729.30 372.20
  Q 739.37 390.41 749.00 408.88
  Q 751.61 413.88 753.29 419.34
  Q 759.09 438.24 764.77 457.17
  Q 766.28 462.23 766.80 467.50
  Q 768.77 487.42 770.74 507.34
  Q 771.25 512.50 770.74 517.67
  Q 768.75 537.80 766.77 557.93
  Q 766.27 563.00 764.79 567.89
  Q 759.65 584.82 754.53 601.76
  Q 751.73 611.02 748.81 616.56
  Q 739.75 633.71 730.54 650.77
  Q 727.81 655.82 724.26 660.24
  Q 711.62 676.00 698.64 691.46
  Q 694.91 695.90 690.45 699.60
  Q 675.33 712.16 660.00 724.41
  Q 655.52 727.99 650.42 730.75
  C 633.10 740.09 619.66 748.47 607.70 752.33
  Q 588.32 758.60 568.83 764.48
  Q 563.57 766.07 558.07 766.65
  Q 537.63 768.84 517.15 770.76
  Q 512.11 771.23 506.99 770.70
  Q 487.60 768.67 468.20 766.94
  Q 463.21 766.49 458.45 765.07
  Q 438.98 759.24 419.51 753.35
  Q 414.21 751.74 409.36 749.22
  Q 390.98 739.63 372.80 729.64
  Q 368.06 727.03 363.82 723.53
  Q 347.77 710.26 331.69 697.06
  Z
  M 541.86 739.23
  L 546.13 750.55
  A 1.47 1.47 0.0 0 1 545.80 752.10
  L 544.20 753.70
  Q 543.35 754.55 544.49 754.10
  Q 545.48 753.72 547.97 753.70
  C 554.24 753.65 561.12 752.33 567.82 750.28
  C 583.68 745.41 600.80 741.60 615.46 733.72
  Q 629.48 726.19 643.53 718.69
  Q 648.23 716.18 652.32 712.86
  Q 668.11 700.03 683.70 686.94
  Q 686.16 684.87 687.05 683.80
  Q 694.95 674.36 714.63 650.14
  Q 716.11 648.31 717.23 646.24
  Q 727.59 627.05 737.61 607.68
  Q 738.85 605.27 739.65 602.67
  Q 745.12 584.76 750.59 566.84
  C 752.90 559.29 753.46 552.34 753.93 544.68
  Q 753.98 543.74 753.37 544.45
  L 751.96 546.08
  Q 751.62 546.47 751.14 546.29
  L 739.52 542.00
  Q 738.80 541.74 739.33 541.18
  Q 745.08 535.06 751.00 529.12
  Q 752.43 527.69 752.99 525.75
  Q 754.79 519.59 757.01 513.56
  Q 757.19 513.09 757.06 512.61
  Q 755.33 505.85 752.89 499.31
  C 751.13 494.62 742.77 487.95 739.06 484.14
  Q 738.70 483.78 739.17 483.57
  Q 744.47 481.25 750.01 479.52
  C 751.70 478.99 752.70 479.63 753.54 481.02
  A 0.36 0.35 -64.8 0 0 754.19 480.78
  C 753.30 474.28 753.30 467.61 751.40 461.38
  Q 745.75 442.86 740.20 424.30
  Q 738.76 419.48 736.40 415.05
  Q 727.47 398.28 718.51 381.51
  Q 716.07 376.93 712.79 372.91
  Q 700.81 358.27 688.81 343.66
  Q 685.56 339.70 681.60 336.45
  Q 667.02 324.48 652.45 312.53
  Q 648.48 309.28 643.96 306.86
  Q 627.38 298.00 610.78 289.16
  Q 606.06 286.65 601.00 285.10
  Q 582.53 279.41 564.01 273.92
  Q 559.32 272.53 554.31 272.09
  Q 541.41 270.96 528.51 269.54
  Q 527.70 269.45 527.62 270.26
  L 527.44 272.31
  Q 527.39 272.77 526.95 272.63
  C 523.12 271.39 514.98 267.76 511.24 268.47
  Q 508.90 268.92 506.72 270.06
  Q 506.29 270.28 505.81 270.23
  Q 504.67 270.12 503.90 270.98
  Q 503.51 271.42 502.93 271.38
  Q 500.71 271.23 498.93 272.43
  Q 498.38 272.80 498.06 272.21
  L 496.90 270.00
  Q 496.66 269.52 496.13 269.58
  Q 482.72 271.01 469.32 272.28
  Q 464.43 272.74 459.79 274.17
  Q 442.68 279.45 425.55 284.67
  Q 419.22 286.61 414.54 289.03
  Q 401.13 295.97 381.70 306.58
  Q 376.79 309.26 372.43 312.81
  Q 358.58 324.05 344.79 335.40
  Q 340.44 338.99 336.84 343.27
  Q 325.20 357.10 313.78 371.13
  Q 309.96 375.81 307.08 381.01
  Q 297.12 398.96 287.82 417.25
  Q 286.41 420.02 285.48 422.99
  Q 279.65 441.56 274.17 460.23
  C 271.05 470.89 270.90 483.52 269.85 494.61
  Q 269.80 495.11 269.50 495.51
  C 268.49 496.86 271.21 497.52 271.98 497.90
  Q 272.45 498.14 272.32 498.65
  Q 270.67 505.20 268.44 511.56
  C 267.69 513.69 271.72 524.23 272.63 526.91
  Q 272.77 527.34 272.33 527.40
  L 270.15 527.69
  Q 269.47 527.79 269.55 528.47
  Q 271.04 541.35 272.10 554.28
  Q 272.49 559.09 273.82 563.55
  Q 279.27 581.79 284.76 600.03
  Q 286.32 605.22 288.81 609.97
  Q 297.87 627.26 307.17 644.41
  Q 309.67 649.02 313.05 653.11
  Q 324.91 667.45 336.70 681.85
  Q 339.83 685.67 343.67 688.80
  Q 357.88 700.36 371.98 712.05
  Q 376.11 715.48 380.72 718.00
  Q 397.93 727.40 415.31 736.47
  Q 420.01 738.92 425.19 740.47
  Q 443.47 745.92 461.72 751.49
  C 467.84 753.35 474.38 753.32 480.76 754.20
  A 0.38 0.38 0.0 0 0 480.99 753.49
  C 479.56 752.73 478.96 751.66 479.49 749.99
  Q 481.25 744.51 483.54 739.15
  Q 483.74 738.67 484.12 739.04
  Q 489.96 744.74 495.68 750.59
  C 499.00 753.98 507.79 755.73 512.39 757.03
  Q 512.97 757.20 513.55 757.01
  L 525.83 752.92
  Q 526.18 752.80 526.43 753.07
  C 526.93 753.61 540.06 740.48 541.38 739.13
  Q 541.70 738.81 541.86 739.23
  Z"
/>
<path fill="#ffffff" d="
  M 478.13 274.38
  A 0.29 0.28 -79.0 0 1 478.34 274.23
  C 479.23 274.05 482.70 285.05 483.09 286.33
  Q 483.23 286.80 482.99 287.21
  L 470.70 308.48
  Q 470.35 309.08 470.00 308.49
  L 463.77 297.99
  Q 463.46 297.46 463.80 296.95
  Q 471.13 285.90 478.13 274.38
  Z"
/>
<path fill="#ffffff" d="
  M 547.27 274.75
  L 561.49 296.98
  Q 561.81 297.48 561.51 297.99
  L 555.08 308.68
  Q 554.83 309.09 554.59 308.67
  L 542.13 287.25
  Q 541.86 286.79 542.04 286.29
  L 546.22 274.86
  Q 546.63 273.75 547.27 274.75
  Z"
/>
<path fill="#ffffff" d="
  M 440.13 369.80
  Q 438.95 369.08 439.41 367.44
  Q 444.61 348.83 449.89 330.29
  Q 450.00 329.91 450.26 330.21
  L 458.17 339.14
  A 1.53 1.52 -58.8 0 1 458.51 340.55
  L 449.38 375.99
  Q 449.24 376.54 448.78 376.21
  C 445.89 374.17 443.10 371.63 440.13 369.80
  Z"
/>
<path fill="#ffffff" d="
  M 574.46 330.81
  Q 574.58 330.33 574.99 330.27
  A 0.48 0.48 0.0 0 1 575.52 330.61
  L 586.16 368.29
  Q 586.29 368.77 585.90 369.08
  L 576.30 376.32
  A 0.31 0.31 0.0 0 1 575.82 376.15
  L 566.76 340.47
  Q 566.61 339.90 567.00 339.46
  L 574.19 331.33
  Q 574.39 331.10 574.46 330.81
  Z"
/>
<path fill="#ffffff" d="
  M 427.14 441.43
  L 419.60 442.04
  Q 419.01 442.09 418.76 441.55
  L 414.03 431.30
  Q 413.77 430.73 414.39 430.67
  L 428.49 429.24
  A 0.83 0.83 0.0 0 0 429.23 428.50
  L 430.66 414.33
  Q 430.72 413.79 431.21 414.01
  L 441.55 418.75
  A 1.01 1.00 -74.8 0 1 442.13 419.78
  L 441.36 426.54
  A 1.12 1.11 -89.8 0 0 442.58 427.78
  L 461.55 425.79
  Q 462.08 425.73 462.20 426.25
  L 464.66 437.30
  Q 464.80 437.91 464.18 437.97
  L 440.79 440.07
  Q 440.19 440.13 440.13 440.73
  L 437.93 464.19
  Q 437.88 464.80 437.28 464.66
  L 426.45 462.17
  Q 425.75 462.01 425.83 461.30
  L 427.85 442.16
  Q 427.94 441.37 427.14 441.43
  Z"
/>
<path fill="#ffffff" d="
  M 587.30 464.15
  L 583.11 419.69
  A 0.52 0.52 0.0 0 1 583.41 419.17
  L 593.83 414.14
  A 0.52 0.52 0.0 0 1 594.58 414.56
  L 599.48 461.54
  A 0.52 0.52 0.0 0 1 599.08 462.10
  L 587.94 464.61
  A 0.52 0.52 0.0 0 1 587.30 464.15
  Z"
/>
<path fill="#ffffff" d="
  M 559.69 437.80
  L 513.18 436.37
  A 0.44 0.44 0.0 0 1 512.75 435.93
  L 512.75 424.11
  Q 512.75 423.78 513.06 423.90
  Q 513.22 423.97 513.35 424.06
  Q 513.35 424.06 513.57 424.07
  L 562.02 425.69
  Q 562.87 425.72 562.69 426.55
  L 560.35 437.29
  Q 560.23 437.81 559.69 437.80
  Z"
/>
<path fill="#ffffff" d="
  M 606.69 441.80
  L 611.59 431.01
  A 0.37 0.37 0.0 0 1 611.99 430.80
  L 655.46 438.81
  A 0.37 0.37 0.0 0 1 655.69 439.40
  L 648.42 449.01
  A 0.37 0.37 0.0 0 1 648.06 449.15
  L 606.97 442.32
  A 0.37 0.37 0.0 0 1 606.69 441.80
  Z"
/>
<path fill="#ffffff" d="
  M 330.06 450.06
  Q 329.52 449.58 330.24 449.51
  C 330.94 449.44 331.55 449.58 332.27 449.37
  Q 350.27 444.14 367.69 439.33
  A 1.88 1.88 0.0 0 1 369.69 440.01
  L 376.33 448.89
  Q 376.56 449.19 376.19 449.28
  L 340.32 458.47
  A 1.22 1.20 -30.7 0 1 339.23 458.20
  L 330.06 450.06
  Z"
/>
<path fill="#ffffff" d="
  M 696.00 450.15
  L 726.97 463.08
  A 0.31 0.31 0.0 0 1 727.01 463.63
  L 715.80 470.10
  A 0.31 0.31 0.0 0 1 715.53 470.12
  L 686.13 458.92
  A 0.31 0.31 0.0 0 1 686.04 458.39
  L 695.68 450.20
  A 0.31 0.31 0.0 0 1 696.00 450.15
  Z"
/>
<path fill="#ffffff" d="
  M 274.42 478.81
  A 0.21 0.21 0.0 0 1 274.29 478.58
  Q 274.41 477.86 275.10 477.74
  Q 275.46 477.69 275.76 477.49
  L 297.02 463.78
  Q 297.49 463.48 297.97 463.76
  L 308.26 469.82
  Q 309.12 470.32 308.26 470.81
  L 287.13 483.07
  Q 286.67 483.34 286.16 483.16
  L 274.42 478.81
  Z"
/>
<circle fill="#ffffff" cx="512.63" cy="512.60" r="14.91"/>
<path fill="#ffffff" d="
  M 425.72 562.36
  L 424.07 513.19
  A 0.43 0.43 0.0 0 1 424.50 512.75
  L 435.95 512.75
  A 0.43 0.43 0.0 0 1 436.38 513.17
  L 437.86 559.87
  A 0.43 0.43 0.0 0 1 437.52 560.31
  L 426.24 562.77
  A 0.43 0.43 0.0 0 1 425.72 562.36
  Z"
/>
<path fill="#ffffff" d="
  M 588.04 560.38
  A 0.73 0.73 0.0 0 1 587.47 559.64
  L 588.84 513.32
  Q 588.86 512.75 589.43 512.75
  L 600.63 512.75
  Q 601.26 512.75 601.24 513.38
  L 599.48 562.36
  Q 599.46 562.95 598.89 562.82
  L 588.04 560.38
  Z"
/>
<path fill="#ffffff" d="
  M 274.47 546.47
  L 286.67 541.91
  A 0.31 0.31 0.0 0 1 286.94 541.93
  L 308.68 554.57
  A 0.31 0.31 0.0 0 1 308.68 555.10
  L 297.68 561.67
  A 0.31 0.31 0.0 0 1 297.36 561.67
  L 274.41 547.02
  A 0.31 0.31 0.0 0 1 274.47 546.47
  Z"
/>
<path fill="#ffffff" d="
  M 695.31 574.88
  C 693.11 573.08 687.99 569.45 686.47 566.91
  Q 686.12 566.32 686.77 566.08
  L 715.53 555.21
  Q 716.03 555.02 716.49 555.30
  L 726.79 561.42
  Q 727.50 561.84 726.74 562.16
  L 695.99 574.98
  A 0.68 0.68 0.0 0 1 695.31 574.88
  Z"
/>
<path fill="#ffffff" d="
  M 330.46 574.88
  L 339.77 566.71
  A 0.38 0.38 0.0 0 1 340.11 566.63
  L 376.04 575.81
  A 0.38 0.38 0.0 0 1 376.25 576.41
  L 368.94 586.02
  A 0.38 0.38 0.0 0 1 368.53 586.16
  L 330.61 575.53
  A 0.38 0.38 0.0 0 1 330.46 574.88
  Z"
/>
<path fill="#ffffff" d="
  M 612.56 594.31
  Q 612.39 594.49 612.17 594.52
  Q 611.72 594.56 611.52 594.15
  L 606.59 583.64
  Q 606.30 583.03 606.97 582.92
  L 647.93 576.12
  Q 648.43 576.04 648.74 576.44
  L 655.79 585.71
  Q 656.19 586.24 655.54 586.36
  Q 634.02 590.44 612.56 594.31
  Z"
/>
<path fill="#ffffff" d="
  M 414.25 593.63
  L 419.09 583.47
  A 0.65 0.65 0.0 0 1 419.74 583.10
  L 464.04 587.29
  A 0.65 0.65 0.0 0 1 464.61 588.08
  L 462.19 598.99
  A 0.65 0.65 0.0 0 1 461.48 599.50
  L 414.76 594.56
  A 0.65 0.65 0.0 0 1 414.25 593.63
  Z"
/>
<path fill="#ffffff" d="
  M 512.75 600.87
  L 512.75 589.19
  A 0.33 0.33 0.0 0 1 513.07 588.86
  L 560.01 587.38
  A 0.33 0.33 0.0 0 1 560.34 587.64
  L 562.85 599.08
  A 0.33 0.33 0.0 0 1 562.54 599.48
  L 513.09 601.20
  A 0.33 0.33 0.0 0 1 512.75 600.87
  Z"
/>
<path fill="#ffffff" d="
  M 585.76 655.75
  C 583.99 654.50 575.93 649.11 576.24 647.26
  Q 579.63 627.00 582.93 606.86
  Q 583.01 606.34 583.49 606.56
  L 593.89 611.37
  Q 594.48 611.63 594.36 612.27
  L 586.41 655.49
  Q 586.29 656.13 585.76 655.75
  Z"
/>
<path fill="#ffffff" d="
  M 449.06 648.37
  L 439.35 655.75
  A 0.34 0.34 0.0 0 1 438.81 655.54
  L 430.80 612.01
  A 0.34 0.34 0.0 0 1 430.99 611.64
  L 441.85 606.52
  A 0.34 0.34 0.0 0 1 442.33 606.77
  L 449.19 648.05
  A 0.34 0.34 0.0 0 1 449.06 648.37
  Z"
/>
<path fill="#ffffff" d="
  M 458.92 686.07
  L 470.17 715.60
  A 0.31 0.31 0.0 0 1 470.14 715.87
  L 463.63 726.97
  A 0.31 0.31 0.0 0 1 463.08 726.94
  L 450.14 695.95
  A 0.31 0.31 0.0 0 1 450.19 695.63
  L 458.39 685.98
  A 0.31 0.31 0.0 0 1 458.92 686.07
  Z"
/>
<path fill="#ffffff" d="
  M 575.11 695.73
  L 562.12 726.92
  A 0.35 0.35 0.0 0 1 561.50 726.96
  L 555.12 716.07
  A 0.35 0.35 0.0 0 1 555.10 715.77
  L 566.27 686.20
  A 0.35 0.35 0.0 0 1 566.86 686.10
  L 575.05 695.37
  A 0.35 0.35 0.0 0 1 575.11 695.73
  Z"
/>
</svg>
