<?xml version="1.0" encoding="UTF-8" standalone="no"?>
<!DOCTYPE svg PUBLIC "-//W3C//DTD SVG 1.1//EN" "http://www.w3.org/Graphics/SVG/1.1/DTD/svg11.dtd">
<svg width = "32" height = "32" xmlns="http://www.w3.org/2000/svg" version="1.1" viewBox="0 0 1024 1024">
<path fill="#ffffff" d="
  M 326.83 689.02
  Q 314.12 673.86 301.61 658.52
  Q 298.06 654.16 295.38 649.25
  Q 285.53 631.24 276.03 613.02
  Q 273.54 608.25 271.96 603.00
  Q 265.86 582.75 259.65 562.53
  Q 259.05 560.59 258.86 558.57
  Q 256.67 535.81 254.35 513.07
  Q 254.13 510.92 254.33 508.76
  C 255.68 494.24 257.35 479.72 258.46 465.19
  Q 258.81 460.73 259.94 456.95
  Q 268.48 428.41 273.01 413.75
  Q 274.15 410.08 276.28 406.10
  Q 285.89 388.15 295.70 370.31
  Q 298.30 365.59 301.75 361.42
  Q 314.71 345.78 327.60 330.10
  Q 329.40 327.91 331.57 326.09
  Q 348.10 312.27 364.76 298.60
  Q 368.95 295.16 373.69 292.60
  Q 392.42 282.44 411.39 272.71
  C 413.77 271.49 415.96 270.42 418.61 269.62
  Q 437.72 263.82 456.83 258.04
  Q 462.03 256.47 467.38 255.91
  Q 487.43 253.79 507.52 251.94
  Q 512.99 251.44 518.48 251.96
  Q 538.64 253.88 558.77 255.99
  Q 563.96 256.53 568.99 258.07
  Q 589.48 264.34 609.99 270.53
  Q 611.72 271.05 614.31 272.44
  Q 633.14 282.51 651.97 292.58
  Q 656.50 295.00 660.46 298.24
  Q 676.21 311.14 691.93 324.07
  Q 695.02 326.61 696.44 328.30
  Q 710.64 345.27 724.61 362.44
  Q 727.94 366.53 730.45 371.22
  Q 739.84 388.77 749.18 406.33
  Q 751.70 411.06 753.27 416.18
  Q 759.22 435.58 765.02 455.02
  Q 766.50 459.97 766.99 465.17
  Q 768.87 484.97 770.87 504.76
  Q 771.38 509.82 770.88 514.86
  Q 768.90 534.79 766.93 554.73
  Q 766.39 560.22 764.86 565.43
  Q 759.18 584.74 753.06 603.92
  Q 751.30 609.44 748.57 614.63
  Q 738.74 633.26 728.76 651.78
  Q 727.63 653.87 726.84 654.84
  Q 712.98 671.68 699.11 688.52
  C 697.11 690.96 694.43 693.71 691.96 695.76
  Q 677.19 708.02 662.36 720.19
  Q 657.65 724.05 652.49 726.95
  Q 634.20 737.22 615.49 746.71
  Q 610.40 749.30 604.69 751.02
  Q 587.00 756.34 569.37 761.80
  Q 564.27 763.39 559.05 763.96
  Q 538.53 766.20 517.97 768.09
  Q 512.52 768.58 507.02 768.06
  Q 487.03 766.15 467.08 764.07
  Q 461.76 763.52 456.63 761.96
  Q 437.54 756.16 418.48 750.33
  Q 413.48 748.80 408.87 746.35
  Q 391.25 736.96 373.68 727.51
  Q 369.02 725.00 364.92 721.65
  Q 349.80 709.31 334.75 696.88
  Q 330.42 693.30 326.83 689.02
  Z
  M 341.94 684.56
  Q 356.90 696.92 371.89 709.28
  Q 376.07 712.73 380.80 715.32
  Q 397.71 724.57 414.75 733.57
  Q 419.41 736.04 424.52 737.58
  Q 442.35 742.98 460.17 748.41
  Q 465.09 749.91 470.19 750.42
  Q 489.28 752.34 508.38 754.12
  Q 513.54 754.60 518.73 754.07
  Q 537.27 752.18 555.81 750.30
  Q 561.01 749.77 565.99 748.26
  Q 583.39 743.00 600.78 737.68
  Q 606.05 736.07 610.90 733.52
  Q 627.31 724.91 643.62 716.10
  Q 648.49 713.48 652.74 710.02
  Q 668.73 697.02 684.45 683.68
  Q 686.67 681.79 688.53 679.53
  Q 700.48 664.96 712.47 650.41
  Q 715.86 646.30 718.37 641.67
  Q 727.13 625.52 735.69 609.26
  Q 738.50 603.91 740.30 598.26
  Q 746.07 580.19 751.27 561.94
  Q 752.79 556.59 753.33 550.89
  Q 755.04 532.94 756.83 514.97
  Q 757.32 510.00 756.82 505.02
  Q 754.95 486.61 753.22 468.17
  Q 752.73 462.97 751.26 458.01
  Q 745.78 439.59 740.16 421.21
  Q 738.67 416.35 736.23 411.82
  Q 727.60 395.79 719.11 379.66
  Q 716.66 375.02 713.42 371.01
  Q 701.44 356.17 689.26 341.48
  Q 685.76 337.26 681.51 333.73
  Q 666.35 321.14 651.13 308.61
  Q 649.11 306.95 646.80 305.72
  Q 628.64 296.01 610.47 286.30
  Q 606.04 283.93 601.21 282.48
  Q 583.32 277.11 565.44 271.66
  Q 560.56 270.17 555.49 269.67
  Q 534.62 267.60 513.75 265.49
  C 511.02 265.22 506.71 266.03 504.76 266.22
  Q 486.41 268.02 468.07 269.93
  Q 465.03 270.24 459.53 271.83
  Q 439.11 277.70 423.43 282.91
  Q 417.44 284.90 411.56 288.03
  Q 396.62 295.97 381.74 304.02
  Q 376.90 306.64 372.63 310.11
  Q 358.47 321.60 344.43 333.28
  Q 340.11 336.86 336.51 341.18
  Q 325.00 354.96 313.60 368.88
  Q 309.98 373.30 307.25 378.26
  Q 298.08 394.91 289.27 411.75
  Q 286.69 416.69 285.05 422.06
  Q 279.49 440.19 274.09 458.36
  Q 272.68 463.13 272.23 468.18
  Q 270.64 485.99 268.70 503.80
  Q 268.16 508.80 268.62 513.72
  Q 270.38 532.64 272.24 551.57
  Q 272.77 556.97 274.30 562.13
  Q 279.75 580.55 285.43 598.89
  Q 287.01 603.97 289.54 608.71
  Q 298.22 624.93 306.92 641.14
  Q 309.43 645.82 312.78 649.93
  Q 326.05 666.17 339.44 682.30
  Q 339.96 682.93 341.94 684.56
  Z"
/>
<path fill="#ffffff" d="
  M 594.36 510.00
  A 81.61 81.61 0.0 0 1 512.75 591.61
  A 81.61 81.61 0.0 0 1 431.14 510.00
  A 81.61 81.61 0.0 0 1 512.75 428.39
  A 81.61 81.61 0.0 0 1 594.36 510.00
  Z
  M 579.91 510.00
  A 67.17 67.17 0.0 0 0 512.74 442.83
  A 67.17 67.17 0.0 0 0 445.57 510.00
  A 67.17 67.17 0.0 0 0 512.74 577.17
  A 67.17 67.17 0.0 0 0 579.91 510.00
  Z"
/>
</svg>
