<?xml version="1.0" encoding="UTF-8" standalone="no"?>
<!DOCTYPE svg PUBLIC "-//W3C//DTD SVG 1.1//EN" "http://www.w3.org/Graphics/SVG/1.1/DTD/svg11.dtd">
<svg width = "32" height = "32" xmlns="http://www.w3.org/2000/svg" version="1.1" viewBox="0 0 1024 1024">
<path fill="#ffffff" d="
  M 322.14 764.35
  Q 318.49 760.67 315.08 756.76
  C 311.96 753.17 309.95 744.19 309.75 739.51
  C 309.31 728.73 309.73 714.68 309.74 707.29
  Q 309.76 499.14 309.75 290.99
  C 309.74 283.42 311.55 274.39 316.90 268.76
  C 320.87 264.57 324.38 260.64 329.35 257.54
  C 336.07 253.34 342.65 249.30 349.99 246.27
  C 375.09 235.91 399.78 230.51 426.11 226.06
  C 438.22 224.01 450.59 223.02 462.94 221.81
  C 474.88 220.64 486.31 220.38 498.07 220.15
  Q 498.18 220.15 498.37 220.04
  Q 498.80 219.80 499.29 219.80
  Q 535.70 219.63 549.75 220.82
  Q 580.06 223.39 587.82 224.41
  C 599.60 225.96 618.93 229.16 634.07 233.20
  C 642.15 235.36 650.48 237.25 658.16 240.08
  Q 665.75 242.88 673.26 245.89
  C 682.52 249.60 690.58 254.78 698.99 260.04
  Q 700.13 260.76 700.97 261.99
  C 703.03 265.03 706.33 267.51 708.73 270.39
  C 711.81 274.08 714.25 282.44 714.25 287.20
  Q 714.25 511.88 714.25 736.55
  C 714.25 742.87 713.24 748.29 710.93 753.67
  C 708.46 759.45 698.67 767.69 693.33 771.03
  C 671.85 784.42 645.45 792.52 622.00 797.27
  C 611.69 799.36 594.49 802.49 580.68 803.87
  Q 572.09 804.72 563.50 805.56
  C 542.43 807.62 523.14 808.06 499.71 807.53
  C 490.06 807.31 480.34 807.17 470.78 806.44
  Q 440.66 804.15 430.44 802.33
  C 417.62 800.05 404.64 798.24 392.04 794.91
  Q 384.50 792.91 376.95 790.93
  Q 369.26 788.90 362.33 786.20
  C 354.34 783.09 346.12 780.33 338.76 775.85
  C 332.82 772.23 327.03 769.28 322.14 764.35
  Z
  M 324.96 298.36
  C 328.34 301.84 332.63 306.53 336.89 308.85
  C 343.03 312.20 348.96 315.87 355.40 318.40
  C 376.12 326.56 394.94 331.48 415.40 334.75
  Q 423.93 336.11 432.47 337.43
  C 445.97 339.51 459.78 340.35 473.44 341.52
  Q 495.71 343.44 531.98 342.32
  C 560.71 341.44 586.12 338.77 617.50 333.25
  C 640.09 329.27 666.88 321.66 687.36 308.75
  C 691.77 305.97 698.08 300.41 700.46 296.94
  Q 702.38 294.14 704.06 287.32
  C 704.91 283.89 702.82 279.48 701.72 276.22
  C 700.26 271.87 690.89 263.67 686.88 261.35
  C 680.39 257.59 674.21 253.90 667.10 251.23
  C 651.34 245.31 642.88 242.83 626.20 239.01
  C 614.29 236.29 602.27 234.52 590.18 232.71
  C 579.25 231.07 567.90 230.31 556.73 229.30
  Q 548.36 228.55 539.73 228.37
  C 526.31 228.09 515.47 227.16 503.91 227.65
  C 493.80 228.09 487.74 228.23 479.64 228.48
  C 468.86 228.81 457.80 230.22 446.90 231.08
  Q 440.50 231.58 434.18 232.57
  C 400.42 237.87 366.95 243.55 337.07 261.32
  C 332.69 263.92 329.27 267.65 325.62 271.22
  C 322.23 274.54 320.92 280.37 319.61 284.81
  Q 319.47 285.29 319.62 285.76
  C 320.90 289.80 321.96 295.29 324.96 298.36
  Z
  M 594.00 373.72
  L 590.31 373.41
  Q 589.75 373.36 589.75 372.80
  L 589.75 347.55
  Q 589.75 345.89 588.09 346.02
  C 574.87 347.04 560.46 348.86 548.20 349.50
  C 511.55 351.45 475.58 350.49 438.57 346.15
  Q 436.50 345.91 435.13 346.01
  Q 434.50 346.06 434.50 346.69
  L 434.50 373.26
  Q 434.50 373.76 434.00 373.72
  L 430.31 373.41
  Q 429.75 373.36 429.75 372.80
  L 429.75 346.25
  Q 429.75 344.90 428.42 344.68
  Q 417.62 342.88 406.39 340.84
  C 396.32 339.01 386.29 336.09 376.25 333.49
  C 364.23 330.38 350.19 324.97 339.62 319.01
  C 332.77 315.15 324.27 310.82 319.61 304.31
  A 0.39 0.38 27.4 0 0 318.91 304.53
  L 319.04 723.04
  Q 319.04 723.82 319.56 723.24
  C 326.56 715.53 337.12 709.43 345.68 705.42
  C 371.24 693.45 401.09 686.87 429.22 682.86
  A 0.63 0.62 86.3 0 0 429.76 682.24
  L 429.73 652.88
  Q 429.73 652.25 430.37 652.25
  L 434.00 652.25
  Q 434.50 652.25 434.50 652.75
  L 434.50 680.99
  A 0.81 0.81 0.0 0 0 435.40 681.80
  C 452.47 679.93 469.51 677.94 486.78 677.68
  Q 498.29 677.51 504.81 677.04
  C 511.29 676.57 518.18 677.16 523.13 677.25
  C 545.30 677.68 560.65 678.75 589.08 681.85
  Q 589.76 681.92 589.76 681.24
  L 589.73 652.76
  Q 589.72 652.25 590.24 652.25
  L 593.87 652.25
  Q 594.50 652.25 594.50 652.87
  L 594.50 681.48
  Q 594.50 682.73 595.73 682.94
  C 608.65 685.11 621.19 687.03 633.94 690.40
  Q 640.19 692.05 646.44 693.68
  C 656.64 696.33 666.05 700.19 675.64 704.14
  C 682.96 707.15 689.45 711.41 696.20 715.55
  C 699.27 717.44 701.51 720.05 704.27 722.54
  Q 704.83 723.04 704.83 722.29
  L 704.80 305.24
  A 0.40 0.40 0.0 0 0 704.10 304.97
  C 697.43 312.40 685.89 318.89 676.81 322.87
  C 651.06 334.14 623.10 340.77 595.31 344.56
  A 0.94 0.93 -3.9 0 0 594.50 345.48
  L 594.50 373.26
  Q 594.50 373.76 594.00 373.72
  Z
  M 324.65 755.01
  C 332.15 763.00 336.19 765.91 345.70 771.07
  C 361.85 779.81 379.80 784.08 397.59 788.47
  Q 404.97 790.30 412.04 791.44
  C 435.66 795.25 459.75 798.56 483.83 799.22
  C 507.61 799.87 531.21 800.29 554.89 798.48
  Q 579.27 796.60 586.75 795.49
  C 621.05 790.40 658.04 784.54 688.14 765.52
  C 691.95 763.11 694.83 759.75 698.07 756.57
  C 701.56 753.16 702.71 749.29 703.91 744.80
  C 704.90 741.08 702.94 736.83 701.69 733.35
  C 700.03 728.75 691.88 721.54 687.66 719.10
  Q 682.74 716.25 677.77 713.46
  C 670.64 709.46 662.99 707.02 655.32 704.22
  C 646.02 700.81 636.42 698.73 626.83 696.41
  C 611.65 692.75 595.31 690.28 579.77 688.62
  Q 541.41 684.51 502.82 685.23
  C 492.00 685.43 481.09 685.37 470.50 686.23
  Q 453.41 687.61 436.37 689.41
  C 433.85 689.67 431.02 690.54 428.28 690.87
  Q 393.80 694.99 361.28 706.80
  C 347.99 711.63 334.97 718.46 325.52 728.38
  C 322.08 731.99 320.84 737.37 319.59 742.04
  Q 319.46 742.52 319.62 743.00
  C 320.91 746.81 321.86 752.05 324.65 755.01
  Z"
/>
<path fill="#ffffff" d="
  M 593.97 285.16
  A 81.90 26.46 0.0 0 1 512.07 311.62
  A 81.90 26.46 0.0 0 1 430.17 285.16
  A 81.90 26.46 0.0 0 1 512.07 258.70
  A 81.90 26.46 0.0 0 1 593.97 285.16
  Z
  M 588.66 285.15
  A 76.58 22.93 0.0 0 0 512.08 262.22
  A 76.58 22.93 0.0 0 0 435.50 285.15
  A 76.58 22.93 0.0 0 0 512.08 308.08
  A 76.58 22.93 0.0 0 0 588.66 285.15
  Z"
/>
<rect fill="#ffffff" x="429.75" y="297.88" width="4.74" height="31.46" rx="0.27"/>
<rect fill="#ffffff" x="-2.37" y="-15.74" transform="translate(592.12,313.67) rotate(-0.1)" width="4.74" height="31.48" rx="0.63"/>
<rect fill="#ffffff" x="429.74" y="386.59" width="4.76" height="31.40" rx="0.26"/>
<rect fill="#ffffff" x="589.74" y="386.58" width="4.76" height="31.42" rx="0.26"/>
<rect fill="#ffffff" x="429.75" y="430.75" width="4.76" height="31.50" rx="0.43"/>
<rect fill="#ffffff" x="589.75" y="430.75" width="4.76" height="31.50" rx="0.43"/>
<rect fill="#ffffff" x="429.74" y="475.21" width="4.76" height="31.28" rx="0.27"/>
<rect fill="#ffffff" x="589.74" y="475.21" width="4.76" height="31.28" rx="0.27"/>
<rect fill="#ffffff" x="429.75" y="519.50" width="4.74" height="31.36" rx="0.40"/>
<rect fill="#ffffff" x="589.75" y="519.50" width="4.74" height="31.36" rx="0.40"/>
<rect fill="#ffffff" x="429.74" y="563.75" width="4.76" height="31.24" rx="0.27"/>
<rect fill="#ffffff" x="589.74" y="563.75" width="4.76" height="31.24" rx="0.27"/>
<rect fill="#ffffff" x="429.76" y="608.00" width="4.74" height="31.46" rx="0.54"/>
<rect fill="#ffffff" x="589.76" y="608.00" width="4.74" height="31.46" rx="0.54"/>
<rect fill="#ffffff" x="-2.38" y="-15.65" transform="translate(432.12,712.33) rotate(-0.1)" width="4.76" height="31.30" rx="0.27"/>
<rect fill="#ffffff" x="-2.38" y="-15.66" transform="translate(592.12,712.34) rotate(-0.1)" width="4.76" height="31.32" rx="0.26"/>
<path fill="#ffffff" d="
  M 593.99 740.70
  A 81.91 26.48 0.0 0 1 512.08 767.18
  A 81.91 26.48 0.0 0 1 430.17 740.70
  A 81.91 26.48 0.0 0 1 512.08 714.22
  A 81.91 26.48 0.0 0 1 593.99 740.70
  Z
  M 588.65 740.71
  A 76.59 22.93 0.0 0 0 512.06 717.78
  A 76.59 22.93 0.0 0 0 435.47 740.71
  A 76.59 22.93 0.0 0 0 512.06 763.64
  A 76.59 22.93 0.0 0 0 588.65 740.71
  Z"
/>
</svg>
