<?xml version="1.0" encoding="UTF-8" standalone="no"?>
<!DOCTYPE svg PUBLIC "-//W3C//DTD SVG 1.1//EN" "http://www.w3.org/Graphics/SVG/1.1/DTD/svg11.dtd">
<svg width = "32" height = "32" xmlns="http://www.w3.org/2000/svg" version="1.1" viewBox="0 0 1024 1024">
<path fill="#ffffff" d="
  M 342.45 766.04
  C 282.20 726.14 235.03 661.98 217.16 591.66
  C 215.05 583.37 212.81 575.05 211.44 566.67
  Q 210.21 559.10 209.11 551.50
  C 207.56 540.82 207.12 529.83 206.55 518.80
  C 206.05 509.10 206.82 499.50 207.32 489.83
  C 207.99 477.07 209.99 463.81 212.56 451.29
  C 235.58 339.21 318.21 250.00 428.01 218.28
  C 438.17 215.34 450.87 212.27 462.90 210.53
  C 470.61 209.41 478.34 208.04 486.02 207.56
  C 498.16 206.80 509.98 206.08 522.24 206.69
  Q 528.58 207.01 534.92 207.37
  C 554.56 208.50 573.67 212.60 592.69 217.40
  C 607.19 221.07 622.58 226.58 636.16 232.82
  Q 742.17 281.56 790.90 387.47
  C 795.37 397.18 799.04 407.90 802.64 418.31
  C 805.47 426.48 807.38 435.05 809.50 443.53
  Q 811.69 452.36 813.07 461.64
  C 814.28 469.79 815.75 477.99 816.23 486.10
  Q 816.77 495.01 817.15 503.93
  C 817.60 514.70 816.84 525.64 816.25 536.64
  Q 815.89 543.34 814.94 549.65
  C 812.43 566.27 809.63 582.46 804.72 598.58
  C 771.99 706.21 686.09 786.17 576.21 810.42
  C 567.19 812.41 556.78 813.85 546.94 815.28
  C 537.69 816.62 528.19 816.69 518.83 817.15
  C 508.54 817.66 498.41 816.81 488.06 816.32
  C 479.20 815.90 470.72 814.39 462.02 813.11
  Q 452.37 811.69 443.17 809.39
  C 434.86 807.31 426.50 805.42 418.44 802.68
  Q 401.33 796.85 395.93 794.56
  Q 367.04 782.33 342.45 766.04
  Z
  M 417.74 245.36
  L 449.50 257.60
  Q 449.98 257.79 450.46 257.59
  Q 483.58 243.60 516.78 229.82
  Q 517.46 229.53 517.73 229.09
  A 0.34 0.34 0.0 0 0 517.44 228.57
  Q 466.11 227.73 417.75 244.59
  A 0.41 0.41 0.0 0 0 417.74 245.36
  Z
  M 601.40 260.49
  Q 601.50 260.39 601.59 260.29
  Q 601.96 259.80 601.48 259.43
  Q 600.23 258.48 598.78 257.93
  Q 567.83 246.07 536.87 234.21
  C 536.07 233.90 534.72 233.89 533.93 234.22
  Q 500.11 248.09 466.22 262.11
  A 0.35 0.35 0.0 0 0 466.23 262.76
  L 582.43 307.39
  Q 583.02 307.61 583.25 307.02
  L 600.86 261.27
  Q 601.03 260.81 601.40 260.49
  Z
  M 605.89 247.81
  L 606.62 246.56
  Q 607.38 245.27 605.98 244.75
  Q 592.47 239.71 578.94 236.77
  C 577.48 236.45 575.94 236.53 574.35 236.24
  A 0.23 0.23 0.0 0 0 574.22 236.68
  L 605.32 248.94
  Q 605.66 249.08 605.75 248.72
  Q 605.79 248.57 605.77 248.40
  Q 605.73 248.08 605.89 247.81
  Z
  M 618.48 253.96
  L 650.25 265.94
  Q 650.81 266.15 650.35 265.77
  C 641.96 258.85 630.22 254.53 620.34 249.97
  Q 619.66 249.65 619.61 250.40
  Q 619.52 251.89 618.31 252.79
  Q 617.34 253.53 618.48 253.96
  Z
  M 315.77 307.94
  L 371.27 329.33
  A 0.39 0.39 0.0 0 0 371.68 329.25
  L 437.83 266.04
  A 0.48 0.48 0.0 0 0 437.67 265.25
  L 401.44 251.33
  Q 400.92 251.13 400.41 251.35
  Q 352.98 271.81 315.67 307.44
  A 0.30 0.30 0.0 0 0 315.77 307.94
  Z
  M 596.51 312.81
  L 711.83 357.11
  Q 713.27 357.66 712.60 356.27
  L 681.01 290.26
  A 2.44 2.39 87.1 0 0 679.70 289.05
  L 615.09 264.28
  A 0.78 0.77 -68.9 0 0 614.09 264.73
  L 596.06 311.80
  A 0.78 0.78 0.0 0 0 596.51 312.81
  Z
  M 450.20 270.46
  A 0.37 0.37 0.0 0 0 449.81 270.54
  L 384.32 333.34
  A 0.37 0.37 0.0 0 0 384.44 333.95
  L 548.35 396.93
  A 0.37 0.37 0.0 0 0 548.83 396.71
  L 578.28 320.06
  A 0.37 0.37 0.0 0 0 578.06 319.58
  L 450.20 270.46
  Z
  M 729.19 365.06
  Q 745.03 371.01 760.80 377.18
  A 0.13 0.12 -2.4 0 0 760.96 377.01
  Q 736.45 331.71 697.54 297.97
  A 0.36 0.36 0.0 0 0 696.98 298.40
  Q 712.43 331.11 727.91 363.70
  Q 728.42 364.77 729.19 365.06
  Z
  M 250.35 404.06
  L 313.76 428.41
  Q 314.24 428.60 314.49 428.15
  L 362.68 341.25
  A 0.86 0.86 0.0 0 0 362.24 340.02
  L 305.74 318.27
  A 0.91 0.88 -57.5 0 0 304.76 318.50
  Q 269.80 356.06 250.09 403.47
  Q 249.91 403.90 250.35 404.06
  Z
  M 561.93 402.14
  L 724.06 464.42
  Q 724.44 464.57 724.75 464.84
  Q 725.11 465.16 725.62 465.24
  A 0.49 0.49 0.0 0 0 726.19 464.72
  L 719.48 375.23
  A 2.12 2.11 -81.7 0 0 718.13 373.41
  L 592.25 325.03
  Q 591.07 324.57 590.62 325.75
  L 561.59 401.39
  Q 561.38 401.93 561.93 402.14
  Z
  M 326.49 433.29
  L 507.50 502.81
  Q 508.02 503.01 508.21 502.50
  L 543.59 410.31
  Q 543.79 409.78 543.26 409.58
  L 375.66 345.19
  Q 374.52 344.75 373.92 345.82
  L 326.07 432.15
  A 0.81 0.81 0.0 0 0 326.49 433.29
  Z
  M 739.69 470.81
  Q 755.08 476.85 793.92 491.60
  Q 794.36 491.77 794.35 491.30
  C 794.16 482.64 792.68 475.08 791.49 466.98
  C 788.24 444.80 781.65 423.22 773.13 402.51
  C 771.88 399.47 770.06 392.96 766.81 391.70
  Q 749.30 384.95 731.99 378.28
  A 0.37 0.37 0.0 0 0 731.49 378.65
  Q 734.94 423.52 737.90 468.08
  Q 738.04 470.16 739.69 470.81
  Z
  M 520.92 507.27
  A 0.66 0.66 0.0 0 0 521.30 508.13
  L 702.34 577.67
  A 0.66 0.66 0.0 0 0 703.22 577.20
  L 725.62 480.24
  A 0.66 0.66 0.0 0 0 725.21 479.47
  L 557.11 414.90
  A 0.66 0.66 0.0 0 0 556.25 415.28
  L 520.92 507.27
  Z
  M 229.62 517.85
  L 286.44 539.69
  A 0.15 0.15 0.0 0 0 286.64 539.59
  L 309.07 442.03
  Q 309.21 441.38 308.59 441.14
  L 245.25 416.78
  A 0.31 0.31 0.0 0 0 244.85 416.98
  Q 243.02 422.49 241.24 427.99
  C 238.80 435.58 237.03 443.55 235.08 451.38
  Q 233.58 457.39 232.67 463.76
  C 231.38 472.79 229.66 481.49 229.40 490.76
  C 229.17 499.31 228.38 507.76 228.49 516.23
  Q 228.51 517.42 229.62 517.85
  Z
  M 298.13 543.55
  A 0.62 0.62 0.0 0 0 298.51 544.27
  L 466.64 608.86
  A 0.62 0.62 0.0 0 0 467.44 608.50
  L 502.85 516.45
  A 0.62 0.62 0.0 0 0 502.49 515.65
  L 321.38 446.08
  A 0.62 0.62 0.0 0 0 320.55 446.51
  L 298.13 543.55
  Z
  M 715.02 582.56
  L 778.24 606.89
  Q 778.67 607.05 778.83 606.62
  C 786.59 584.87 790.72 564.67 793.67 541.99
  C 794.41 536.33 794.55 530.64 794.74 524.94
  C 794.89 520.17 795.57 512.95 795.11 506.83
  Q 795.06 506.29 794.56 506.09
  L 737.72 484.23
  Q 737.18 484.02 737.05 484.59
  L 714.60 581.78
  Q 714.47 582.35 715.02 582.56
  Z
  M 480.18 613.41
  A 0.61 0.61 0.0 0 0 480.53 614.20
  L 648.71 678.80
  A 0.61 0.61 0.0 0 0 649.46 678.53
  L 697.81 591.42
  A 0.61 0.61 0.0 0 0 697.49 590.56
  L 516.28 520.96
  A 0.61 0.61 0.0 0 0 515.49 521.31
  L 480.18 613.41
  Z
  M 256.44 631.81
  Q 273.45 638.46 291.43 645.34
  Q 292.29 645.66 292.22 644.75
  L 285.46 554.70
  Q 285.37 553.45 284.20 552.99
  L 230.23 532.25
  Q 229.56 531.99 229.52 532.71
  C 229.09 540.62 231.13 549.04 232.27 556.86
  C 235.27 577.38 241.21 597.69 248.66 617.03
  C 249.76 619.87 253.89 630.82 256.44 631.81
  Z
  M 305.21 650.00
  Q 368.53 674.67 432.11 698.93
  Q 432.66 699.14 432.87 698.59
  L 461.89 623.03
  Q 462.36 621.81 461.14 621.35
  L 298.03 558.71
  Q 297.50 558.50 297.55 559.07
  Q 300.91 603.18 304.13 647.31
  C 304.22 648.50 303.88 649.48 305.21 650.00
  Z
  M 661.16 683.60
  L 718.13 705.53
  Q 718.60 705.71 718.94 705.34
  Q 753.89 667.82 773.56 620.43
  Q 773.80 619.84 773.21 619.62
  L 710.02 595.34
  Q 709.49 595.14 709.21 595.64
  L 660.89 682.87
  A 0.52 0.52 0.0 0 0 661.16 683.60
  Z
  M 573.54 753.29
  A 0.32 0.32 0.0 0 0 573.88 753.22
  L 639.52 690.37
  A 0.32 0.32 0.0 0 0 639.41 689.84
  L 475.32 626.80
  A 0.32 0.32 0.0 0 0 474.91 626.99
  L 445.44 703.74
  A 0.32 0.32 0.0 0 0 445.63 704.15
  L 573.54 753.29
  Z
  M 262.88 646.89
  C 279.31 677.33 300.40 702.72 326.13 725.73
  A 0.35 0.34 -81.8 0 0 326.67 725.32
  L 295.87 659.61
  Q 295.68 659.19 295.25 659.03
  L 263.09 646.65
  Q 262.66 646.48 262.88 646.89
  Z
  M 343.08 734.19
  A 0.44 0.44 0.0 0 0 343.32 734.41
  L 408.96 759.61
  A 0.44 0.44 0.0 0 0 409.53 759.36
  L 427.83 711.64
  A 0.44 0.44 0.0 0 0 427.58 711.07
  L 311.49 666.51
  A 0.44 0.44 0.0 0 0 310.94 667.11
  L 343.08 734.19
  Z
  M 592.27 751.52
  C 590.48 753.21 587.50 755.88 586.14 757.93
  Q 585.81 758.44 586.38 758.66
  L 622.19 772.38
  Q 622.76 772.60 623.31 772.36
  Q 670.62 752.10 707.79 716.59
  Q 708.45 715.96 707.60 715.64
  L 653.22 694.74
  Q 652.66 694.52 652.15 694.86
  Q 650.13 696.23 648.78 697.53
  Q 620.63 724.63 592.27 751.52
  Z
  M 422.63 764.89
  L 487.87 789.92
  Q 488.35 790.10 488.83 789.90
  L 557.69 761.59
  Q 558.35 761.32 557.68 761.06
  L 441.12 716.30
  Q 440.67 716.13 440.50 716.57
  L 422.29 764.12
  Q 422.08 764.68 422.63 764.89
  Z
  M 373.70 758.24
  Q 377.07 761.18 380.53 762.87
  Q 391.78 768.40 403.22 773.74
  A 0.65 0.64 21.2 0 0 404.11 773.35
  L 405.00 770.55
  A 0.87 0.87 0.0 0 0 404.48 769.48
  L 373.86 757.98
  Q 373.05 757.68 373.70 758.24
  Z
  M 505.82 795.06
  Q 509.63 795.51 513.25 795.46
  Q 560.97 794.79 605.83 779.18
  A 0.46 0.45 -44.0 0 0 605.85 778.33
  L 574.25 766.16
  Q 573.69 765.94 573.14 766.17
  L 505.76 794.59
  Q 504.88 794.96 505.82 795.06
  Z
  M 416.92 778.60
  Q 432.72 784.92 449.51 787.73
  A 0.32 0.31 60.1 0 0 449.67 787.12
  L 418.95 775.03
  Q 418.45 774.83 418.21 775.31
  L 416.76 778.18
  A 0.31 0.30 -66.1 0 0 416.92 778.60
  Z"
/>
</svg>
